<?xml version="1.0" encoding="utf-8"?>
<!-- Generator: Adobe Illustrator 15.0.0, SVG Export Plug-In . SVG Version: 6.00 Build 0)  -->
<!DOCTYPE svg PUBLIC "-//W3C//DTD SVG 1.1//EN" "http://www.w3.org/Graphics/SVG/1.1/DTD/svg11.dtd">
<svg version="1.1" id="Layer_1" xmlns="http://www.w3.org/2000/svg" xmlns:xlink="http://www.w3.org/1999/xlink" x="0px" y="0px"
	 width="1921.039px" height="2813.953px" viewBox="0 0 1921.039 2813.953" enable-background="new 0 0 1921.039 2813.953"
	 xml:space="preserve">
<g transform="translate(22.5000185, 22.5000185) ">
	<polygon fill="none" stroke="#000000" stroke-width="0.9" points="-4.5,-4.5 101.799,-4.5 101.799,12.508 208.099,12.508 
		208.099,-4.5 293.138,-4.5 293.138,12.508 378.178,12.508 378.178,-4.5 463.218,-4.5 463.218,12.508 569.516,12.508 569.516,-4.5 
		675.815,-4.5 675.815,108.886 658.807,108.886 658.807,222.271 675.815,222.271 675.815,307.311 658.807,307.311 658.807,392.351 
		675.815,392.351 675.815,477.39 658.807,477.39 658.807,562.429 675.815,562.429 675.815,647.469 658.807,647.469 658.807,732.509 
		675.815,732.509 675.815,817.548 658.807,817.548 658.807,902.588 675.815,902.588 675.815,987.627 658.807,987.627 
		658.807,1072.666 675.815,1072.666 675.815,1157.705 658.807,1157.705 658.807,1271.092 675.815,1271.092 675.815,1384.477 
		569.516,1384.477 569.516,1367.469 463.218,1367.469 463.218,1384.477 378.178,1384.477 378.178,1367.469 293.138,1367.469 
		293.138,1384.477 208.099,1384.477 208.099,1367.469 101.799,1367.469 101.799,1384.477 -4.5,1384.477 -4.5,1271.092 
		12.508,1271.092 12.508,1157.705 -4.5,1157.705 -4.5,1072.666 12.508,1072.666 12.508,987.627 -4.5,987.627 -4.5,902.588 
		12.508,902.588 12.508,817.548 -4.5,817.548 -4.5,732.509 12.508,732.509 12.508,647.469 -4.5,647.469 -4.5,562.429 
		12.508,562.429 12.508,477.39 -4.5,477.39 -4.5,392.351 12.508,392.351 12.508,307.311 -4.5,307.311 -4.5,222.271 12.508,222.271 
		12.508,108.886 -4.5,108.886 	"/>
</g>
<g transform="translate(872.8944184999999, 22.5000185) ">
	<polygon fill="none" stroke="#000000" stroke-width="0.9" points="-174.579,-4.5 -68.279,-4.5 -68.279,12.508 38.019,12.508 
		38.019,-4.5 123.059,-4.5 123.059,12.508 208.099,12.508 208.099,-4.5 293.138,-4.5 293.138,12.508 399.437,12.508 399.437,-4.5 
		505.734,-4.5 505.734,108.886 488.728,108.886 488.728,222.271 505.734,222.271 505.734,307.311 488.728,307.311 488.728,392.351 
		505.734,392.351 505.734,477.39 488.728,477.39 488.728,562.429 505.734,562.429 505.734,647.469 488.728,647.469 488.728,732.509 
		505.734,732.509 505.734,817.548 488.728,817.548 488.728,902.588 505.734,902.588 505.734,987.627 488.728,987.627 
		488.728,1072.666 505.734,1072.666 505.734,1157.705 488.728,1157.705 488.728,1271.092 505.734,1271.092 505.734,1384.477 
		399.437,1384.477 399.437,1367.469 293.138,1367.469 293.138,1384.477 208.099,1384.477 208.099,1367.469 123.059,1367.469 
		123.059,1384.477 38.019,1384.477 38.019,1367.469 -68.279,1367.469 -68.279,1384.477 -174.579,1384.477 -174.579,1271.092 
		-157.57,1271.092 -157.57,1157.705 -174.579,1157.705 -174.579,1072.666 -157.57,1072.666 -157.57,987.627 -174.579,987.627 
		-174.579,902.588 -157.57,902.588 -157.57,817.548 -174.579,817.548 -174.579,732.509 -157.57,732.509 -157.57,647.469 
		-174.579,647.469 -174.579,562.429 -157.57,562.429 -157.57,477.39 -174.579,477.39 -174.579,392.351 -157.57,392.351 
		-157.57,307.311 -174.579,307.311 -174.579,222.271 -157.57,222.271 -157.57,108.886 -174.579,108.886 	"/>
</g>
<g transform="translate(1723.2888185000002, 22.5000185) ">
	<polygon fill="none" stroke="#000000" stroke-width="0.9" points="-327.65,-4.5 -234.815,-4.5 -234.815,12.508 -124.974,12.508 
		-124.974,-4.5 -39.934,-4.5 -39.934,12.508 69.908,12.508 69.908,-4.5 162.742,-4.5 162.742,108.886 179.75,108.886 
		179.75,222.271 162.742,222.271 162.742,307.311 179.75,307.311 179.75,392.351 162.742,392.351 162.742,477.39 179.75,477.39 
		179.75,562.429 162.742,562.429 162.742,647.469 179.75,647.469 179.75,732.509 162.742,732.509 162.742,817.548 179.75,817.548 
		179.75,902.588 162.742,902.588 162.742,987.627 179.75,987.627 179.75,1072.666 162.742,1072.666 162.742,1157.705 
		179.75,1157.705 179.75,1271.092 162.742,1271.092 162.742,1384.477 69.908,1384.477 69.908,1367.469 -39.934,1367.469 
		-39.934,1384.477 -124.974,1384.477 -124.974,1367.469 -234.815,1367.469 -234.815,1384.477 -327.65,1384.477 -327.65,1271.092 
		-344.659,1271.092 -344.659,1157.705 -327.65,1157.705 -327.65,1072.666 -344.659,1072.666 -344.659,987.627 -327.65,987.627 
		-327.65,902.588 -344.659,902.588 -344.659,817.548 -327.65,817.548 -327.65,732.509 -344.659,732.509 -344.659,647.469 
		-327.65,647.469 -327.65,562.429 -344.659,562.429 -344.659,477.39 -327.65,477.39 -327.65,392.351 -344.659,392.351 
		-344.659,307.311 -327.65,307.311 -327.65,222.271 -344.659,222.271 -344.659,108.886 -327.65,108.886 	"/>
</g>
<g transform="translate(1723.2888185000002, 1758.7219185000001) ">
	<polygon fill="none" stroke="#000000" stroke-width="0.9" points="-327.65,-351.745 -234.815,-351.745 -234.815,-334.738 
		-124.974,-334.738 -124.974,-351.745 -39.934,-351.745 -39.934,-334.738 69.908,-334.738 69.908,-351.745 162.742,-351.745 
		162.742,-238.36 179.75,-238.36 179.75,-124.974 162.742,-124.974 162.742,-39.935 179.75,-39.935 179.75,45.104 162.742,45.104 
		162.742,130.144 179.75,130.144 179.75,215.183 162.742,215.183 162.742,300.223 179.75,300.223 179.75,385.262 162.742,385.262 
		162.742,470.302 179.75,470.302 179.75,555.341 162.742,555.341 162.742,640.381 179.75,640.381 179.75,725.42 162.742,725.42 
		162.742,810.459 179.75,810.459 179.75,923.844 162.742,923.844 162.742,1037.231 69.908,1037.231 69.908,1020.223 
		-39.934,1020.223 -39.934,1037.231 -124.974,1037.231 -124.974,1020.223 -234.815,1020.223 -234.815,1037.231 -327.65,1037.231 
		-327.65,923.844 -344.659,923.844 -344.659,810.459 -327.65,810.459 -327.65,725.42 -344.659,725.42 -344.659,640.381 
		-327.65,640.381 -327.65,555.341 -344.659,555.341 -344.659,470.302 -327.65,470.302 -327.65,385.262 -344.659,385.262 
		-344.659,300.223 -327.65,300.223 -327.65,215.183 -344.659,215.183 -344.659,130.144 -327.65,130.144 -327.65,45.104 
		-344.659,45.104 -344.659,-39.935 -327.65,-39.935 -327.65,-124.974 -344.659,-124.974 -344.659,-238.36 -327.65,-238.36 	"/>
</g>
<g transform="translate(22.5000185, 1758.7219185000001) ">
	<polygon fill="none" stroke="#000000" stroke-width="0.9" points="12.508,-334.738 101.799,-334.738 101.799,-351.745 
		208.099,-351.745 208.099,-334.738 293.138,-334.738 293.138,-351.745 378.178,-351.745 378.178,-334.738 463.218,-334.738 
		463.218,-351.745 569.516,-351.745 569.516,-334.738 658.807,-334.738 658.807,-241.904 675.815,-241.904 675.815,-132.061 
		658.807,-132.061 658.807,-47.021 675.815,-47.021 675.815,62.821 658.807,62.821 658.807,155.657 569.516,155.657 
		569.516,172.665 463.218,172.665 463.218,155.657 378.178,155.657 378.178,172.665 293.138,172.665 293.138,155.657 
		208.099,155.657 208.099,172.665 101.799,172.665 101.799,155.657 12.508,155.657 12.508,62.821 -4.5,62.821 -4.5,-47.021 
		12.508,-47.021 12.508,-132.061 -4.5,-132.061 -4.5,-241.904 12.508,-241.904 	"/>
</g>
<g transform="translate(872.8944184999999, 1758.7219185000001) ">
	<polygon fill="none" stroke="#000000" stroke-width="0.9" points="-157.57,-334.738 -68.279,-334.738 -68.279,-351.745 
		38.019,-351.745 38.019,-334.738 123.059,-334.738 123.059,-351.745 208.099,-351.745 208.099,-334.738 293.138,-334.738 
		293.138,-351.745 399.437,-351.745 399.437,-334.738 488.728,-334.738 488.728,-241.904 505.734,-241.904 505.734,-132.061 
		488.728,-132.061 488.728,-47.021 505.734,-47.021 505.734,62.821 488.728,62.821 488.728,155.657 399.437,155.657 
		399.437,172.665 293.138,172.665 293.138,155.657 208.099,155.657 208.099,172.665 123.059,172.665 123.059,155.657 
		38.019,155.657 38.019,172.665 -68.279,172.665 -68.279,155.657 -157.57,155.657 -157.57,62.821 -174.579,62.821 -174.579,-47.021 
		-157.57,-47.021 -157.57,-132.061 -174.579,-132.061 -174.579,-241.904 -157.57,-241.904 	"/>
</g>
<path fill="none" stroke="#000000" stroke-width="0.9" d="M63.192,1548.201c0,1.859-3.173,3.368-7.086,3.368l0,0
	c-3.913,0-7.086-1.509-7.086-3.368v-92.479c0-1.857,3.173-3.367,7.086-3.367l0,0c3.913,0,7.086,1.51,7.086,3.367V1548.201z"/>
<path fill="none" stroke="#000000" stroke-width="0.9" d="M63.192,1661.588c0,1.858-3.173,3.367-7.086,3.367l0,0
	c-3.913,0-7.086-1.509-7.086-3.367v-92.478c0-1.858,3.173-3.368,7.086-3.368l0,0c3.913,0,7.086,1.51,7.086,3.368V1661.588z"/>
<path fill="none" stroke="#000000" stroke-width="0.9" d="M91.538,1548.201c0,1.859-3.173,3.368-7.086,3.368l0,0
	c-3.913,0-7.086-1.509-7.086-3.368v-92.479c0-1.857,3.173-3.367,7.086-3.367l0,0c3.913,0,7.086,1.51,7.086,3.367V1548.201z"/>
<path fill="none" stroke="#000000" stroke-width="0.9" d="M91.538,1661.588c0,1.858-3.173,3.367-7.086,3.367l0,0
	c-3.913,0-7.086-1.509-7.086-3.367v-92.478c0-1.858,3.173-3.368,7.086-3.368l0,0c3.913,0,7.086,1.51,7.086,3.368V1661.588z"/>
<path fill="none" stroke="#000000" stroke-width="0.9" d="M119.884,1548.201c0,1.859-3.173,3.368-7.086,3.368l0,0
	c-3.913,0-7.086-1.509-7.086-3.368v-92.479c0-1.857,3.173-3.367,7.086-3.367l0,0c3.913,0,7.086,1.51,7.086,3.367V1548.201z"/>
<path fill="none" stroke="#000000" stroke-width="0.9" d="M119.884,1661.588c0,1.858-3.173,3.367-7.086,3.367l0,0
	c-3.913,0-7.086-1.509-7.086-3.367v-92.478c0-1.858,3.173-3.368,7.086-3.368l0,0c3.913,0,7.086,1.51,7.086,3.368V1661.588z"/>
<path fill="none" stroke="#000000" stroke-width="0.9" d="M148.23,1548.201c0,1.859-3.173,3.368-7.086,3.368l0,0
	c-3.913,0-7.086-1.509-7.086-3.368v-92.479c0-1.857,3.173-3.367,7.086-3.367l0,0c3.913,0,7.086,1.51,7.086,3.367V1548.201z"/>
<path fill="none" stroke="#000000" stroke-width="0.9" d="M148.23,1661.588c0,1.858-3.173,3.367-7.086,3.367l0,0
	c-3.913,0-7.086-1.509-7.086-3.367v-92.478c0-1.858,3.173-3.368,7.086-3.368l0,0c3.913,0,7.086,1.51,7.086,3.368V1661.588z"/>
<path fill="none" stroke="#000000" stroke-width="0.9" d="M176.577,1548.201c0,1.859-3.173,3.368-7.086,3.368l0,0
	c-3.913,0-7.086-1.509-7.086-3.368v-92.479c0-1.857,3.173-3.367,7.086-3.367l0,0c3.913,0,7.086,1.51,7.086,3.367V1548.201z"/>
<path fill="none" stroke="#000000" stroke-width="0.9" d="M176.577,1661.588c0,1.858-3.173,3.367-7.086,3.367l0,0
	c-3.913,0-7.086-1.509-7.086-3.367v-92.478c0-1.858,3.173-3.368,7.086-3.368l0,0c3.913,0,7.086,1.51,7.086,3.368V1661.588z"/>
<path fill="none" stroke="#000000" stroke-width="0.9" d="M204.923,1548.201c0,1.859-3.173,3.368-7.086,3.368l0,0
	c-3.913,0-7.086-1.509-7.086-3.368v-92.479c0-1.857,3.173-3.367,7.086-3.367l0,0c3.913,0,7.086,1.51,7.086,3.367V1548.201z"/>
<path fill="none" stroke="#000000" stroke-width="0.9" d="M204.923,1661.588c0,1.858-3.173,3.367-7.086,3.367l0,0
	c-3.913,0-7.086-1.509-7.086-3.367v-92.478c0-1.858,3.173-3.368,7.086-3.368l0,0c3.913,0,7.086,1.51,7.086,3.368V1661.588z"/>
<path fill="none" stroke="#000000" stroke-width="0.9" d="M233.269,1548.201c0,1.859-3.173,3.368-7.086,3.368l0,0
	c-3.913,0-7.086-1.509-7.086-3.368v-92.479c0-1.857,3.173-3.367,7.086-3.367l0,0c3.913,0,7.086,1.51,7.086,3.367V1548.201z"/>
<path fill="none" stroke="#000000" stroke-width="0.9" d="M233.269,1661.588c0,1.858-3.173,3.367-7.086,3.367l0,0
	c-3.913,0-7.086-1.509-7.086-3.367v-92.478c0-1.858,3.173-3.368,7.086-3.368l0,0c3.913,0,7.086,1.51,7.086,3.368V1661.588z"/>
<path fill="none" stroke="#000000" stroke-width="0.9" d="M655.797,913.454c0,6.425-6.347,11.634-14.173,11.634H74.693
	c-7.828,0-14.173-5.208-14.173-11.634V284.75c0-6.424,6.346-11.633,14.173-11.633h566.93c7.828,0,14.174,5.208,14.174,11.633
	V913.454L655.797,913.454z"/>
<path fill="none" stroke="#000000" stroke-width="0.9" d="M1336.111,913.454c0,6.425-6.348,11.634-14.174,11.634H755.007
	c-7.828,0-14.175-5.208-14.175-11.634V284.75c0-6.424,6.347-11.633,14.175-11.633h566.931c7.827,0,14.175,5.208,14.175,11.633
	L1336.111,913.454L1336.111,913.454z"/>
<path fill="none" stroke="#000000" stroke-width="0.9" d="M1860.52,916.584c0,4.696-3.807,8.504-8.504,8.504h-422.359
	c-4.695,0-8.504-3.808-8.504-8.504V281.622c0-4.697,3.809-8.504,8.504-8.504h422.359c4.697,0,8.504,3.807,8.504,8.504V916.584z"/>
<text transform="matrix(1 0 0 1 333.1436 1670.5996)" fill="#FF0000" font-family="'MyriadPro-Regular'" font-size="12">Top (Inside)</text>
<path fill="none" stroke="#000000" stroke-width="0.9" d="M1166.033,155.411c0,2.109-3.173,3.821-7.087,3.821l0,0
	c-3.912,0-7.087-1.711-7.087-3.821V50.506c0-2.108,3.175-3.82,7.087-3.82l0,0c3.913,0,7.087,1.711,7.087,3.82V155.411z"/>
<path fill="none" stroke="#000000" stroke-width="0.9" d="M1194.381,155.411c0,2.109-3.175,3.821-7.087,3.821l0,0
	c-3.913,0-7.088-1.711-7.088-3.821V50.506c0-2.108,3.174-3.82,7.088-3.82l0,0c3.912,0,7.087,1.711,7.087,3.82V155.411z"/>
<path fill="none" stroke="#000000" stroke-width="0.9" d="M1222.726,155.411c0,2.109-3.174,3.821-7.086,3.821l0,0
	c-3.914,0-7.087-1.711-7.087-3.821V50.506c0-2.108,3.173-3.82,7.087-3.82l0,0c3.912,0,7.086,1.711,7.086,3.82V155.411z"/>
<path fill="none" stroke="#000000" stroke-width="0.9" d="M1251.071,155.411c0,2.109-3.173,3.821-7.086,3.821l0,0
	c-3.913,0-7.087-1.711-7.087-3.821V50.506c0-2.108,3.174-3.82,7.087-3.82l0,0c3.913,0,7.086,1.711,7.086,3.82V155.411z"/>
<path fill="none" stroke="#000000" stroke-width="0.9" d="M1279.419,155.411c0,2.109-3.174,3.821-7.088,3.821l0,0
	c-3.912,0-7.086-1.711-7.086-3.821V50.506c0-2.108,3.174-3.82,7.086-3.82l0,0c3.914,0,7.088,1.711,7.088,3.82V155.411z"/>
<path fill="none" stroke="#000000" stroke-width="0.9" d="M1307.765,155.411c0,2.109-3.174,3.821-7.087,3.821l0,0
	c-3.913,0-7.087-1.711-7.087-3.821V50.506c0-2.108,3.174-3.82,7.087-3.82l0,0c3.913,0,7.087,1.711,7.087,3.82V155.411z"/>
<text transform="matrix(1 0 0 1 1002.3086 107.293)" fill="#FF0000" font-family="'MyriadPro-Regular'" font-size="12">Back (Inside)</text>
<text transform="matrix(1 0 0 1 1606.127 103.04)" fill="#FF0000" font-family="'MyriadPro-Regular'" font-size="12">Left (Inside)</text>
<text transform="matrix(1 0 0 1 1606.127 1501.9629)" fill="#FF0000" font-family="'MyriadPro-Regular'" font-size="12">Right (Inside)</text>
<path fill="none" stroke="#000000" stroke-width="0.9" d="M1860.52,2305.559c0,4.697-3.808,8.504-8.505,8.504h-422.359
	c-4.696,0-8.504-3.807-8.504-8.504v-634.961c0-4.693,3.808-8.504,8.504-8.504h422.359c4.697,0,8.505,3.811,8.505,8.504V2305.559z"/>
<text transform="matrix(1 0 0 1 333.1436 2215.8203)" fill="#FF0000" font-family="'MyriadPro-Regular'" font-size="12">Bottom (Inside)</text>
<g transform="translate(872.8944184999999, 1758.7219185000001) ">
	<polygon fill="none" stroke="#000000" stroke-width="0.9" points="-837.886,211.901 -748.595,211.901 -748.595,194.893 
		-642.296,194.893 -642.296,211.901 -557.256,211.901 -557.256,194.893 -472.217,194.893 -472.217,211.901 -387.178,211.901 
		-387.178,194.893 -280.878,194.893 -280.878,211.901 -191.587,211.901 -191.587,304.735 -174.579,304.735 -174.579,414.579 
		-191.587,414.579 -191.587,499.619 -174.579,499.619 -174.579,609.46 -191.587,609.46 -191.587,702.295 -280.878,702.295 
		-280.878,719.302 -387.178,719.302 -387.178,702.295 -472.217,702.295 -472.217,719.302 -557.256,719.302 -557.256,702.295 
		-642.296,702.295 -642.296,719.302 -748.595,719.302 -748.595,702.295 -837.886,702.295 -837.886,609.46 -854.894,609.46 
		-854.894,499.619 -837.886,499.619 -837.886,414.579 -854.894,414.579 -854.894,304.735 -837.886,304.735 	"/>
</g>
<circle fill="none" stroke="#000000" stroke-miterlimit="10" cx="825.874" cy="1669.18" r="4.252"/>
<circle fill="none" stroke="#000000" stroke-miterlimit="10" cx="1251.072" cy="1669.182" r="4.252"/>
<circle fill="none" stroke="#000000" stroke-miterlimit="10" cx="737.685" cy="1669.184" r="5.669"/>
<text transform="matrix(1 0 0 1 1002.3086 1670.5996)" fill="#FF0000" font-family="'MyriadPro-Regular'" font-size="12">Middle (Inside)</text>
<circle fill="none" stroke="#000000" stroke-miterlimit="10" cx="1347.02" cy="1438.479" r="5.669"/>
<circle fill="none" stroke="#000000" stroke-miterlimit="10" cx="729.859" cy="1439.146" r="5.669"/>
<text transform="matrix(1 0 0 1 1326.9551 1465.0625)" fill="#FF0000" font-family="'MyriadPro-Regular'" font-size="12">220v</text>
<text transform="matrix(1 0 0 1 724.1904 1465.0625)" fill="#FF0000" font-family="'MyriadPro-Regular'" font-size="12">Pump</text>
<text transform="matrix(1 0 0 1 749.9805 1651.8926)" fill="#FF0000" font-family="'MyriadPro-Regular'" font-size="12">LED</text>
<rect x="123.841" y="170.93" fill="none" stroke="#000000" stroke-width="0.9" width="106.3" height="17.007"/>
<rect x="316.052" y="170.93" fill="none" stroke="#000000" stroke-width="0.9" width="85.039" height="17.007"/>
<rect x="486.175" y="170.93" fill="none" stroke="#000000" stroke-width="0.9" width="106.299" height="17.008"/>
<rect x="804.157" y="170.93" fill="none" stroke="#000000" stroke-width="0.9" width="106.299" height="17.007"/>
<rect x="996.367" y="170.93" fill="none" stroke="#000000" stroke-width="0.9" width="85.039" height="17.007"/>
<rect x="1166.49" y="170.93" fill="none" stroke="#000000" stroke-width="0.9" width="106.298" height="17.008"/>
<rect x="1683.08" y="170.93" fill="none" stroke="#000000" stroke-width="0.9" width="109.843" height="17.008"/>
<rect x="1488.749" y="170.93" fill="none" stroke="#000000" stroke-width="0.9" width="109.842" height="17.008"/>
<rect x="1683.08" y="1559.907" fill="none" stroke="#000000" stroke-width="0.9" width="109.843" height="17.009"/>
<rect x="1488.749" y="1559.907" fill="none" stroke="#000000" stroke-width="0.9" width="109.842" height="17.009"/>
<rect x="761.527" y="1147.194" fill="none" stroke="#000000" stroke-miterlimit="10" width="77.669" height="89.008"/>
<rect x="256.677" y="59.444" fill="none" stroke="#000000" stroke-width="0.9" width="202.961" height="75.685"/>
<ellipse fill="none" stroke="#000000" stroke-width="0.9" cx="639.676" cy="97.286" rx="7.229" ry="6.095"/>
<text transform="matrix(1 0 0 1 780.3457 1257.293)" fill="#FF0000" font-family="'MyriadPro-Regular'" font-size="12">DC Plug</text>
<text transform="matrix(1 0 0 1 770.6797 1271.6929)" fill="#FF0000" font-family="'MyriadPro-Regular'" font-size="12">(27,4 x 31,4)</text>
<path fill="#FF0000" stroke="#FF0000" stroke-miterlimit="10" d="M127.3,1006.656v38.095c0,21.994-6.455,36.833-27.104,36.833
	c-20.749,0-28.095-14.839-28.095-36.833v-38.095c0-1.79,1.389-3.263,3.076-3.263h0.299c1.689,0,2.978,1.473,2.978,3.263v38.095
	c0,18.312,5.758,30.518,21.742,30.518c15.885,0,20.649-12.207,20.649-30.518v-38.095c0-1.79,1.391-3.263,3.08-3.263h0.296
	C125.908,1003.394,127.3,1004.867,127.3,1006.656"/>
<path fill="#FF0000" stroke="#FF0000" stroke-miterlimit="10" d="M155.593,1036.333c-7.248,5.365-11.914,7.471-11.914,18.732
	l-0.1,21.991c0,1.791-1.389,3.158-3.076,3.158h-0.199c-1.688,0-3.079-1.367-3.079-3.158v-43.986c0-1.791,1.391-3.263,3.079-3.263
	h0.199c1.687,0,3.175,1.472,3.175,3.263v3.262c0,0.948,0.596,0.736,0.895,0.314c1.49-1.894,4.567-5.261,6.453-6.313
	c1.488-0.842,4.269-0.526,5.261,1.263c0,0.105,0.1,0.211,0.2,0.316C156.983,1032.965,157.083,1035.281,155.593,1036.333"/>
<path fill="#FF0000" stroke="#FF0000" stroke-miterlimit="10" d="M163.336,1003.394h0.398c1.687,0,3.077,1.473,3.077,3.158v30.202
	c0,0.84,0.795,0.84,1.091,0.316c4.766-6.103,10.425-8.524,17.076-8.524c6.851,0,12.806,2.422,17.672,7.682
	c4.964,5.157,7.347,11.366,7.347,18.733c0,7.366-2.383,13.575-7.347,18.835c-4.866,5.155-10.821,7.789-17.672,7.789
	c-6.651,0-12.906-3.369-17.472-8.946c-0.497-0.633-0.695,0.104-0.695,0.42v3.998c0,1.793-1.39,3.158-3.077,3.158h-0.398
	c-1.588,0-2.977-1.365-2.977-3.158v-70.505C160.36,1004.867,161.748,1003.394,163.336,1003.394 M184.979,1075.269
	c10.328,0,18.665-9.367,18.665-20.309c0-10.945-8.336-20.102-18.665-20.102c-10.325,0-18.665,9.157-18.665,20.102
	C166.313,1065.902,174.653,1075.269,184.979,1075.269"/>
<path fill="#FF0000" stroke="#FF0000" stroke-miterlimit="10" d="M241.469,1028.545c6.851,0,13.702,2.947,17.571,8.103
	c0.3,0.527,1.293,0.841,1.293-0.525v-3.051c0-1.792,1.389-3.264,3.076-3.264h0.199c1.687,0,3.077,1.472,3.077,3.264v43.985
	c0,1.793-1.39,3.262-3.077,3.262h-0.199c-1.687,0-3.076-1.469-3.076-3.262v-3.156c0-1.262-0.696-1.051-0.893-0.736
	c-4.27,5.367-10.723,8.42-17.772,8.42c-13.898,0-25.315-11.682-25.315-26.417C216.353,1040.437,227.57,1028.545,241.469,1028.545
	 M241.668,1075.269c10.325,0,18.565-9.155,18.565-20.101c0-10.944-8.44-20.309-18.765-20.309c-10.425,0-18.761,9.365-18.761,20.309
	C222.707,1066.114,231.243,1075.269,241.668,1075.269"/>
<path fill="#FF0000" stroke="#FF0000" stroke-miterlimit="10" d="M317.217,1049.381v27.57c0,1.791-1.391,3.261-3.076,3.261h-0.2
	c-1.685,0-3.077-1.47-3.077-3.261v-27.148c0-10.418-7.445-14.943-14.295-14.943c-9.035,0-13.403,4.313-13.403,13.048v29.043
	c0,1.792-1.391,3.262-3.078,3.262h-0.297c-1.686,0-3.078-1.47-3.078-3.262l-0.099-43.986c0-1.789,1.392-3.157,3.079-3.157h0.396
	c1.49,0,2.979,1.159,2.979,3.157v0.317c0,0.525,0.497,0.629,0.794,0.315c3.376-4,8.835-5.053,12.708-5.053
	C305.602,1028.545,317.217,1033.071,317.217,1049.381"/>
<path fill="#55B158" d="M103.999,1055.074c0,2.203-1.718,3.995-3.83,3.995c-2.118,0-3.833-1.792-3.833-3.995
	c0-2.202,1.715-3.989,3.833-3.989C102.281,1051.085,103.999,1052.872,103.999,1055.074"/>
<path fill="#FF0000" stroke="#FF0000" stroke-width="2" stroke-miterlimit="10" d="M653.791,1035.025
	c-7.449,5.513-12.248,7.675-12.248,19.243l-0.102,22.594c0,1.837-1.43,3.241-3.162,3.241h-0.207c-1.733,0-3.162-1.405-3.162-3.241
	v-45.186c0-1.84,1.43-3.353,3.162-3.353h0.207c1.733,0,3.264,1.513,3.264,3.353v3.35c0,0.974,0.613,0.756,0.92,0.323
	c1.53-1.945,4.696-5.405,6.634-6.485c1.53-0.865,4.39-0.541,5.41,1.297c0,0.108,0.101,0.218,0.202,0.324
	C655.221,1031.567,655.321,1033.945,653.791,1035.025"/>
<path fill="#FF0000" stroke="#FF0000" stroke-width="2" stroke-miterlimit="10" d="M374.435,1025.296
	c0,15.026-11.533,24.862-25.722,24.862H334.73c-0.92,0-1.225,0.217-1.225,1.19v25.405c0,1.839-1.428,3.354-3.164,3.354h-0.306
	c-1.736,0-3.164-1.514-3.164-3.354v-72.214c0-1.835,1.428-3.351,3.164-3.351h18.677
	C362.901,1001.188,374.435,1010.269,374.435,1025.296 M367.902,1025.296c0-11.242-8.576-17.188-19.189-17.188h-13.983
	c-0.92,0-1.224,0.326-1.224,1.189v32.539c0,0.973,0.205,1.296,1.123,1.296h14.085
	C359.327,1043.133,367.902,1036.539,367.902,1025.296"/>
<path fill="#FF0000" stroke="#FF0000" stroke-width="2" stroke-miterlimit="10" d="M425.875,1054.268
	c0,15.025-11.532,27.242-25.821,27.242c-14.188,0-25.723-12.217-25.723-27.242c0-15.026,11.534-27.242,25.723-27.242
	C414.343,1027.026,425.875,1039.242,425.875,1054.268 M419.242,1054.268c0-11.242-8.574-20.756-19.188-20.756
	c-10.513,0-19.188,9.514-19.188,20.756s8.676,20.756,19.188,20.756C410.668,1075.024,419.242,1065.51,419.242,1054.268"/>
<path fill="#FF0000" stroke="#FF0000" stroke-width="2" stroke-miterlimit="10" d="M453.232,1031.675v0.216
	c0,1.837-1.432,3.349-3.166,3.349h-4.693c-1.021,0-1.328,0.217-1.328,1.189v40.323c0,1.838-1.43,3.354-3.163,3.354h-0.205
	c-1.735,0-3.164-1.515-3.164-3.354v-40.213c0-0.866-0.306-1.3-1.122-1.3h-4.897c-1.737,0-3.167-1.512-3.167-3.349v-0.216
	c0-1.839,1.43-3.352,3.167-3.352h4.794c0.82,0,1.226-0.648,1.226-1.728v-22.054c0-1.838,1.429-3.352,3.164-3.352h0.205
	c1.733,0,3.163,1.513,3.163,3.352v22.376c0,0.863,0.408,1.405,1.225,1.405h4.797
	C451.802,1028.323,453.232,1029.835,453.232,1031.675"/>
<path fill="#FF0000" stroke="#FF0000" stroke-width="2" stroke-miterlimit="10" d="M481.504,1027.026
	c7.043,0,14.086,3.026,18.064,8.323c0.309,0.542,1.328,0.865,1.328-0.539v-3.136c0-1.838,1.428-3.351,3.162-3.351h0.207
	c1.732,0,3.161,1.513,3.161,3.351v45.188c0,1.837-1.429,3.349-3.161,3.349h-0.207c-1.734,0-3.162-1.511-3.162-3.349v-3.244
	c0-1.296-0.713-1.081-0.918-0.757c-4.389,5.517-11.023,8.649-18.271,8.649c-14.288,0-26.026-12-26.026-27.135
	C455.682,1039.242,467.214,1027.026,481.504,1027.026 M481.709,1075.024c10.614,0,19.087-9.403,19.087-20.649
	c0-11.241-8.676-20.862-19.292-20.862c-10.716,0-19.291,9.621-19.291,20.862C462.213,1065.621,470.99,1075.024,481.709,1075.024"/>
<path fill="#FF0000" stroke="#FF0000" stroke-width="2" stroke-miterlimit="10" d="M567.852,1031.676v40.968
	c0,7.351-2.449,13.62-7.449,18.918c-4.082,4.324-8.88,6.701-14.393,7.564c-1.833,0.328-4.284-0.427-4.59-3.132
	c-0.307-3.458,2.246-4.325,3.979-4.433c3.777-0.215,7.35-2.054,10.207-5.081c3.062-3.242,5.105-6.163,5.717-8.648
	c0.611-2.377,0-6.271-0.41-5.621c-4.795,6.271-12.349,9.296-19.287,9.296c-15.416,0-25.824-10.376-25.824-27.135
	c0-16.213,11.633-27.348,25.824-27.348c6.938,0,13.775,2.918,18.882,8.648c0.101,0.107,0.815,0.54,0.815-0.973v-3.025
	c0-1.841,1.43-3.352,3.163-3.352h0.306C566.424,1028.324,567.852,1029.835,567.852,1031.676 M561.321,1054.374
	c0-11.348-8.981-20.862-19.697-20.862c-10.617,0-19.19,10.056-19.19,20.862c0,12.325,7.758,20.65,19.19,20.65
	C552.341,1075.024,561.321,1065.621,561.321,1054.374"/>
<path fill="#FF0000" stroke="#FF0000" stroke-width="2" stroke-miterlimit="10" d="M623.681,1053.079H584.59
	c-1.426,0-1.732,0.431-1.631,2.054c0.408,5.408,2.246,9.834,5.613,13.296c3.675,3.892,8.164,6.595,13.473,6.595
	c5.206,0,10.615-2.919,12.963-5.946c2.346-3.028,3.776-4.11,6.122-2.595c1.839,1.3,1.939,3.783,0.409,5.515
	c-0.409,0.539-0.816,0.971-1.227,1.406c-5.102,5.403-11.123,8.106-18.268,8.106c-7.144,0-13.166-2.703-18.269-7.999
	c-5.001-5.403-7.554-11.784-7.554-19.35c0-7.567,2.552-13.946,7.554-19.243c5.103-5.404,11.126-7.892,18.269-7.892
	c7.145,0,13.166,2.487,18.268,7.892c3.575,3.783,5.718,8.432,6.43,13.837C626.948,1050.376,626.539,1053.079,623.681,1053.079
	 M618.682,1044.106c-0.716-1.406-1.735-2.811-3.164-4.216c-3.776-4-8.266-6.378-13.473-6.378c-5.309,0-9.798,2.379-13.575,6.378
	c-1.632,1.73-2.754,3.352-3.569,4.758c-0.717,1.403-0.205,1.511,1.428,1.511h31.435
	C619.905,1046.159,619.295,1045.187,618.682,1044.106"/>
<path fill="#FF0000" stroke="#FF0000" stroke-width="2" stroke-miterlimit="10" d="M127.3,1006.656v38.095
	c0,21.994-6.455,36.833-27.104,36.833c-20.749,0-28.095-14.839-28.095-36.833v-38.095c0-1.79,1.389-3.263,3.076-3.263h0.299
	c1.689,0,2.978,1.473,2.978,3.263v38.095c0,18.312,5.758,30.518,21.742,30.518c15.885,0,20.649-12.207,20.649-30.518v-38.095
	c0-1.79,1.391-3.263,3.08-3.263h0.296C125.908,1003.394,127.3,1004.867,127.3,1006.656z"/>
<path fill="#FF0000" stroke="#FF0000" stroke-width="2" stroke-miterlimit="10" d="M155.593,1036.333
	c-7.248,5.365-11.914,7.471-11.914,18.732l-0.1,21.991c0,1.791-1.389,3.158-3.076,3.158h-0.199c-1.688,0-3.079-1.367-3.079-3.158
	v-43.986c0-1.791,1.391-3.263,3.079-3.263h0.199c1.687,0,3.175,1.472,3.175,3.263v3.262c0,0.948,0.596,0.736,0.895,0.314
	c1.49-1.894,4.567-5.261,6.453-6.313c1.488-0.842,4.269-0.526,5.261,1.263c0,0.105,0.1,0.211,0.2,0.316
	C156.983,1032.965,157.083,1035.281,155.593,1036.333z"/>
<path fill="#FF0000" stroke="#FF0000" stroke-width="2" stroke-miterlimit="10" d="M163.336,1003.394h0.398
	c1.687,0,3.077,1.473,3.077,3.158v30.202c0,0.84,0.795,0.84,1.091,0.316c4.766-6.103,10.425-8.524,17.076-8.524
	c6.851,0,12.806,2.422,17.672,7.682c4.964,5.157,7.347,11.366,7.347,18.733c0,7.366-2.383,13.575-7.347,18.835
	c-4.866,5.155-10.821,7.789-17.672,7.789c-6.651,0-12.906-3.369-17.472-8.946c-0.497-0.633-0.695,0.104-0.695,0.42v3.998
	c0,1.793-1.39,3.158-3.077,3.158h-0.398c-1.588,0-2.977-1.365-2.977-3.158v-70.505
	C160.36,1004.867,161.748,1003.394,163.336,1003.394z M184.979,1075.269c10.328,0,18.665-9.367,18.665-20.309
	c0-10.945-8.336-20.102-18.665-20.102c-10.325,0-18.665,9.157-18.665,20.102C166.313,1065.902,174.653,1075.269,184.979,1075.269z"
	/>
<path fill="#FF0000" stroke="#FF0000" stroke-width="2" stroke-miterlimit="10" d="M241.469,1028.545
	c6.851,0,13.702,2.947,17.571,8.103c0.3,0.527,1.293,0.841,1.293-0.525v-3.051c0-1.792,1.389-3.264,3.076-3.264h0.199
	c1.687,0,3.077,1.472,3.077,3.264v43.985c0,1.793-1.39,3.262-3.077,3.262h-0.199c-1.687,0-3.076-1.469-3.076-3.262v-3.156
	c0-1.262-0.696-1.051-0.893-0.736c-4.27,5.367-10.723,8.42-17.772,8.42c-13.898,0-25.315-11.682-25.315-26.417
	C216.353,1040.437,227.57,1028.545,241.469,1028.545z M241.668,1075.269c10.325,0,18.565-9.155,18.565-20.101
	c0-10.944-8.44-20.309-18.765-20.309c-10.425,0-18.761,9.365-18.761,20.309C222.707,1066.114,231.243,1075.269,241.668,1075.269z"/>
<path fill="#FF0000" stroke="#FF0000" stroke-width="2" stroke-miterlimit="10" d="M317.217,1049.381v27.57
	c0,1.791-1.391,3.261-3.076,3.261h-0.2c-1.685,0-3.077-1.47-3.077-3.261v-27.148c0-10.418-7.445-14.943-14.295-14.943
	c-9.035,0-13.403,4.313-13.403,13.048v29.043c0,1.792-1.391,3.262-3.078,3.262h-0.297c-1.686,0-3.078-1.47-3.078-3.262
	l-0.099-43.986c0-1.789,1.392-3.157,3.079-3.157h0.396c1.49,0,2.979,1.159,2.979,3.157v0.317c0,0.525,0.497,0.629,0.794,0.315
	c3.376-4,8.835-5.053,12.708-5.053C305.602,1028.545,317.217,1033.071,317.217,1049.381z"/>
<path fill="none" stroke="#57B157" stroke-miterlimit="10" d="M90.351,964.733c-13.06-13.056-25.886-6.761-32.14-13.02
	c6.254,6.259-0.041,19.08,13.019,32.141c13.058,13.058,23.162,4.143,31.594,12.574C94.391,987.997,103.408,977.794,90.351,964.733z
	 M71.267,964.746c3.914,3.91,6.635,5.271,14.805,13.435c8.166,8.168,7.85,9.226,13.128,14.501
	c-5.278-5.275-6.324-4.969-14.494-13.133C76.539,971.38,75.18,968.656,71.267,964.746z"/>
<path fill="none" stroke="#57B157" stroke-miterlimit="10" d="M113.592,955.936c-16.741,16.746-5.469,29.93-16.283,40.742
	c10.814-10.812,24.093,0.551,40.836-16.194c16.743-16.742,8.653-33.204,16.676-41.227
	C146.796,947.281,130.339,939.192,113.592,955.936z M124.286,970.757c-13.656,13.658-15.164,13.71-23.982,22.531
	c8.818-8.82,8.878-10.32,22.536-23.977c13.654-13.656,11.249-9.803,17.791-16.349C134.089,959.508,137.943,957.101,124.286,970.757z
	"/>
<polygon fill="none" stroke="#57B157" stroke-miterlimit="10" points="103.999,1055.074 96.336,1055.074 97.538,990.756 
	102.792,990.756 "/>
<path fill="#FF0000" d="M154.82,939.257c-8.024,8.023-24.481-0.065-41.229,16.679c-13.802,13.807-8.573,25.189-12.369,34.82h-1.801
	c-2.179-7.261,1.191-15.759-9.071-26.023c-13.06-13.056-25.886-6.76-32.141-13.019c6.255,6.259-0.04,19.08,13.019,32.141
	c10.418,10.419,18.955,6.855,26.266,9.271l-0.066,3.424c-0.041,0.043-0.077,0.087-0.121,0.13c0.04-0.04,0.08-0.073,0.121-0.113
	l-1.093,58.509c0,2.203,1.715,3.995,3.833,3.995c2.111,0,3.83-1.792,3.83-3.995l-1.165-62.141
	c9.738-4.088,21.312,1.55,35.311-12.449C154.887,963.742,146.796,947.281,154.82,939.257z M84.705,979.549
	c-8.167-8.17-9.525-10.893-13.438-14.803c3.913,3.91,6.634,5.271,14.804,13.435c7.198,7.199,7.811,8.877,11.463,12.783l-0.001,0.104
	C93.591,987.372,91.936,986.774,84.705,979.549z M102.793,990.839l-0.002-0.083h-0.001c6.488-6.729,7.81-9.208,20.05-21.445
	c13.654-13.656,11.249-9.803,17.791-16.349c-6.542,6.546-2.688,4.14-16.345,17.794C112.024,983.02,109.553,984.317,102.793,990.839z
	"/>
<text transform="matrix(1 0 0 1 59.9521 1132.5713)" fill="#FF0000" font-family="'GardensC'" font-size="32.3998">Automated &amp; Smart Indoor Kitchen Garden</text>
<path fill="#FF0000" d="M468.869,1113.807c0,0.725-0.586,1.312-1.312,1.312s-1.312-0.587-1.312-1.312
	c0-0.726,0.586-1.312,1.312-1.312S468.869,1113.081,468.869,1113.807z"/>
<circle fill="none" stroke="#000000" stroke-width="0.9" cx="72.204" cy="72.707" r="3.543"/>
<circle fill="none" stroke="#000000" stroke-width="0.9" cx="108.77" cy="72.707" r="3.543"/>
<circle fill="none" stroke="#000000" stroke-width="0.9" cx="84.393" cy="72.707" r="3.543"/>
<circle fill="none" stroke="#000000" stroke-width="0.9" cx="96.582" cy="72.707" r="3.543"/>
<circle fill="none" stroke="#000000" stroke-width="0.9" cx="72.204" cy="85.122" r="3.543"/>
<circle fill="none" stroke="#000000" stroke-width="0.9" cx="108.77" cy="85.122" r="3.543"/>
<circle fill="none" stroke="#000000" stroke-width="0.9" cx="84.393" cy="85.122" r="3.543"/>
<circle fill="none" stroke="#000000" stroke-width="0.9" cx="96.582" cy="85.122" r="3.543"/>
<circle fill="none" stroke="#000000" stroke-width="0.9" cx="72.204" cy="96.723" r="3.543"/>
<circle fill="none" stroke="#000000" stroke-width="0.9" cx="108.77" cy="96.723" r="3.543"/>
<circle fill="none" stroke="#000000" stroke-width="0.9" cx="84.393" cy="96.723" r="3.543"/>
<circle fill="none" stroke="#000000" stroke-width="0.9" cx="96.582" cy="96.723" r="3.543"/>
<circle fill="none" stroke="#000000" stroke-width="0.9" cx="72.204" cy="110.266" r="3.543"/>
<circle fill="none" stroke="#000000" stroke-width="0.9" cx="108.77" cy="110.266" r="3.543"/>
<circle fill="none" stroke="#000000" stroke-width="0.9" cx="84.393" cy="110.266" r="3.543"/>
<circle fill="none" stroke="#000000" stroke-width="0.9" cx="96.582" cy="110.266" r="3.543"/>
<circle fill="none" stroke="#000000" stroke-width="0.9" cx="72.204" cy="121.867" r="3.543"/>
<circle fill="none" stroke="#000000" stroke-width="0.9" cx="108.77" cy="121.867" r="3.543"/>
<circle fill="none" stroke="#000000" stroke-width="0.9" cx="84.393" cy="121.867" r="3.543"/>
<circle fill="none" stroke="#000000" stroke-width="0.9" cx="96.582" cy="121.867" r="3.543"/>
</svg>
