  0
SECTION
  2
HEADER
  9
$ACADVER
  1
AC1014
  9
$ACADMAINTVER
 70
     9
  9
$DWGCODEPAGE
  3
ANSI_932
  9
$INSBASE
 10
0.0
 20
0.0
 30
0.0
  9
$EXTMIN
 10
1.000000000000000E+20
 20
1.000000000000000E+20
 30
1.000000000000000E+20
  9
$EXTMAX
 10
-1.000000000000000E+20
 20
-1.000000000000000E+20
 30
-1.000000000000000E+20
  9
$LIMMIN
 10
0.0
 20
0.0
  9
$LIMMAX
 10
12.0
 20
9.0
  9
$ORTHOMODE
 70
     0
  9
$REGENMODE
 70
     1
  9
$FILLMODE
 70
     1
  9
$QTEXTMODE
 70
     0
  9
$MIRRTEXT
 70
     1
  9
$DRAGMODE
 70
     2
  9
$LTSCALE
 40
1.0
  9
$OSMODE
 70
    37
  9
$ATTMODE
 70
     1
  9
$TEXTSIZE
 40
0.2
  9
$TRACEWID
 40
0.05
  9
$TEXTSTYLE
  7
STANDARD
  9
$CLAYER
  8
0
  9
$CELTYPE
  6
BYLAYER
  9
$CECOLOR
 62
   256
  9
$CELTSCALE
 40
1.0
  9
$DELOBJ
 70
     1
  9
$DISPSILH
 70
     0
  9
$DIMSCALE
 40
1.0
  9
$DIMASZ
 40
0.18
  9
$DIMEXO
 40
0.0625
  9
$DIMDLI
 40
0.38
  9
$DIMRND
 40
0.0
  9
$DIMDLE
 40
0.0
  9
$DIMEXE
 40
0.18
  9
$DIMTP
 40
0.0
  9
$DIMTM
 40
0.0
  9
$DIMTXT
 40
0.18
  9
$DIMCEN
 40
0.09
  9
$DIMTSZ
 40
0.0
  9
$DIMTOL
 70
     0
  9
$DIMLIM
 70
     0
  9
$DIMTIH
 70
     1
  9
$DIMTOH
 70
     1
  9
$DIMSE1
 70
     0
  9
$DIMSE2
 70
     0
  9
$DIMTAD
 70
     0
  9
$DIMZIN
 70
     0
  9
$DIMBLK
  1

  9
$DIMASO
 70
     1
  9
$DIMSHO
 70
     1
  9
$DIMPOST
  1

  9
$DIMAPOST
  1

  9
$DIMALT
 70
     0
  9
$DIMALTD
 70
     2
  9
$DIMALTF
 40
25.4
  9
$DIMLFAC
 40
1.0
  9
$DIMTOFL
 70
     0
  9
$DIMTVP
 40
0.0
  9
$DIMTIX
 70
     0
  9
$DIMSOXD
 70
     0
  9
$DIMSAH
 70
     0
  9
$DIMBLK1
  1

  9
$DIMBLK2
  1

  9
$DIMSTYLE
  2
STANDARD
  9
$DIMCLRD
 70
     0
  9
$DIMCLRE
 70
     0
  9
$DIMCLRT
 70
     0
  9
$DIMTFAC
 40
1.0
  9
$DIMGAP
 40
0.09
  9
$DIMJUST
 70
     0
  9
$DIMSD1
 70
     0
  9
$DIMSD2
 70
     0
  9
$DIMTOLJ
 70
     1
  9
$DIMTZIN
 70
     0
  9
$DIMALTZ
 70
     0
  9
$DIMALTTZ
 70
     0
  9
$DIMFIT
 70
     3
  9
$DIMUPT
 70
     0
  9
$DIMUNIT
 70
     2
  9
$DIMDEC
 70
     4
  9
$DIMTDEC
 70
     4
  9
$DIMALTU
 70
     2
  9
$DIMALTTD
 70
     2
  9
$DIMTXSTY
  7
STANDARD
  9
$DIMAUNIT
 70
     0
  9
$LUNITS
 70
     2
  9
$LUPREC
 70
     4
  9
$SKETCHINC
 40
0.1
  9
$FILLETRAD
 40
0.5
  9
$AUNITS
 70
     0
  9
$AUPREC
 70
     0
  9
$MENU
  1
.
  9
$ELEVATION
 40
0.0
  9
$PELEVATION
 40
0.0
  9
$THICKNESS
 40
0.0
  9
$LIMCHECK
 70
     0
  9
$CHAMFERA
 40
0.5
  9
$CHAMFERB
 40
0.5
  9
$CHAMFERC
 40
1.0
  9
$CHAMFERD
 40
0.0
  9
$SKPOLY
 70
     0
  9
$TDCREATE
 40
2457053.43224537
  9
$TDUPDATE
 40
2457053.432245382
  9
$TDINDWG
 40
0.0000000116
  9
$TDUSRTIMER
 40
0.0000000116
  9
$USRTIMER
 70
     1
  9
$ANGBASE
 50
0.0
  9
$ANGDIR
 70
     0
  9
$PDMODE
 70
     0
  9
$PDSIZE
 40
0.0
  9
$PLINEWID
 40
0.0
  9
$COORDS
 70
     1
  9
$SPLFRAME
 70
     0
  9
$SPLINETYPE
 70
     6
  9
$SPLINESEGS
 70
     8
  9
$ATTDIA
 70
     0
  9
$ATTREQ
 70
     1
  9
$HANDLING
 70
     1
  9
$HANDSEED
  5
75
  9
$SURFTAB1
 70
     6
  9
$SURFTAB2
 70
     6
  9
$SURFTYPE
 70
     6
  9
$SURFU
 70
     6
  9
$SURFV
 70
     6
  9
$UCSNAME
  2

  9
$UCSORG
 10
0.0
 20
0.0
 30
0.0
  9
$UCSXDIR
 10
1.0
 20
0.0
 30
0.0
  9
$UCSYDIR
 10
0.0
 20
1.0
 30
0.0
  9
$PUCSNAME
  2

  9
$PUCSORG
 10
0.0
 20
0.0
 30
0.0
  9
$PUCSXDIR
 10
1.0
 20
0.0
 30
0.0
  9
$PUCSYDIR
 10
0.0
 20
1.0
 30
0.0
  9
$USERI1
 70
     0
  9
$USERI2
 70
     0
  9
$USERI3
 70
     0
  9
$USERI4
 70
     0
  9
$USERI5
 70
     0
  9
$USERR1
 40
0.0
  9
$USERR2
 40
0.0
  9
$USERR3
 40
0.0
  9
$USERR4
 40
0.0
  9
$USERR5
 40
0.0
  9
$WORLDVIEW
 70
     1
  9
$SHADEDGE
 70
     3
  9
$SHADEDIF
 70
    70
  9
$TILEMODE
 70
     1
  9
$MAXACTVP
 70
    64
  9
$PINSBASE
 10
0.0
 20
0.0
 30
0.0
  9
$PLIMCHECK
 70
     0
  9
$PEXTMIN
 10
1.000000000000000E+20
 20
1.000000000000000E+20
 30
1.000000000000000E+20
  9
$PEXTMAX
 10
-1.000000000000000E+20
 20
-1.000000000000000E+20
 30
-1.000000000000000E+20
  9
$PLIMMIN
 10
0.0
 20
0.0
  9
$PLIMMAX
 10
12.0
 20
9.0
  9
$UNITMODE
 70
     0
  9
$VISRETAIN
 70
     1
  9
$PLINEGEN
 70
     0
  9
$PSLTSCALE
 70
     1
  9
$TREEDEPTH
 70
  3020
  9
$PICKSTYLE
 70
     1
  9
$CMLSTYLE
  2
STANDARD
  9
$CMLJUST
 70
     0
  9
$CMLSCALE
 40
1.0
  9
$PROXYGRAPHICS
 70
     1
  9
$MEASUREMENT
 70
     0
  0
ENDSEC
  0
SECTION
  2
CLASSES
  0
CLASS
  1
ACDBDICTIONARYWDFLT
  2
AcDbDictionaryWithDefault
  3
ObjectDBX Classes
 90
        0
280
     0
281
     0
  0
CLASS
  1
VISUALSTYLE
  2
AcDbVisualStyle
  3
ObjectDBX Classes
 90
     4095
280
     0
281
     0
  0
CLASS
  1
XRECORD
  2
AcDbXrecord
  3
AutoCAD 2000
 90
        0
280
     0
281
     0
  0
CLASS
  1
LWPOLYLINE
  2
AcDbPolyline
  3
AutoCAD 2000
 90
        0
280
     0
281
     1
  0
CLASS
  1
HATCH
  2
AcDbHatch
  3
AutoCAD 2000
 90
        0
280
     0
281
     1
  0
CLASS
  1
ACDBPLACEHOLDER
  2
AcDbPlaceHolder
  3
ObjectDBX Classes
 90
        0
280
     0
281
     0
  0
CLASS
  1
LAYOUT
  2
AcDbLayout
  3
ObjectDBX Classes
 90
        0
280
     0
281
     0
  0
ENDSEC
  0
SECTION
  2
TABLES
  0
TABLE
  2
VPORT
  5
8
330
0
100
AcDbSymbolTable
 70
     1
  0
VPORT
  5
29
330
8
100
AcDbSymbolTableRecord
100
AcDbViewportTableRecord
  2
*ACTIVE
 70
     0
 10
0.0
 20
0.0
 11
1.0
 21
1.0
 12
0.0
 22
0.0
 13
0.0
 23
0.0
 14
0.5
 24
0.5
 15
0.5
 25
0.5
 16
0.0
 26
0.0
 36
1.0
 17
85.00003570774925
 27
-65.5002656330224
 37
0.0
 40
131.0005312660448
 41
1.29770520602127
 42
50.0
 43
0.0
 44
0.0
 50
0.0
 51
0.0
 71
     0
 72
   100
 73
     1
 74
     3
 75
     0
 76
     0
 77
     0
 78
     0
  0
ENDTAB
  0
TABLE
  2
LTYPE
  5
5
330
0
100
AcDbSymbolTable
 70
     1
  0
LTYPE
  5
14
330
5
100
AcDbSymbolTableRecord
100
AcDbLinetypeTableRecord
  2
BYBLOCK
 70
     0
  3

 72
    65
 73
     0
 40
0.0
  0
LTYPE
  5
15
330
5
100
AcDbSymbolTableRecord
100
AcDbLinetypeTableRecord
  2
BYLAYER
 70
     0
  3

 72
    65
 73
     0
 40
0.0
  0
LTYPE
  5
16
330
5
100
AcDbSymbolTableRecord
100
AcDbLinetypeTableRecord
  2
CONTINUOUS
 70
     0
  3
Solid line
 72
    65
 73
     0
 40
0.0
  0
ENDTAB
  0
TABLE
  2
LAYER
  5
2
330
0
100
AcDbSymbolTable
 70
     2
  0
LAYER
  5
10
330
2
100
AcDbSymbolTableRecord
100
AcDbLayerTableRecord
  2
0
 70
     0
 62
     7
  6
CONTINUOUS
  0
LAYER
  5
3B
330
2
100
AcDbSymbolTableRecord
100
AcDbLayerTableRecord
  2
LAYER_1
 70
     0
 62
     7
  6
CONTINUOUS
  0
ENDTAB
  0
TABLE
  2
STYLE
  5
3
330
0
100
AcDbSymbolTable
 70
     1
  0
STYLE
  5
11
330
3
100
AcDbSymbolTableRecord
100
AcDbTextStyleTableRecord
  2
STANDARD
 70
     0
 40
0.0
 41
1.0
 50
0.0
 71
     0
 42
0.2
  3
txt
  4

  0
ENDTAB
  0
TABLE
  2
VIEW
  5
6
330
0
100
AcDbSymbolTable
 70
     0
  0
ENDTAB
  0
TABLE
  2
UCS
  5
7
330
0
100
AcDbSymbolTable
 70
     0
  0
ENDTAB
  0
TABLE
  2
APPID
  5
9
330
0
100
AcDbSymbolTable
 70
     1
  0
APPID
  5
12
330
9
100
AcDbSymbolTableRecord
100
AcDbRegAppTableRecord
  2
ACAD
 70
     0
  0
ENDTAB
  0
TABLE
  2
DIMSTYLE
  5
A
330
0
100
AcDbSymbolTable
 70
     1
  0
DIMSTYLE
105
27
330
A
100
AcDbSymbolTableRecord
100
AcDbDimStyleTableRecord
  2
STANDARD
 70
     0
  3

  4

  5

  6

  7

 40
1.0
 41
0.18
 42
0.0625
 43
0.38
 44
0.18
 45
0.0
 46
0.0
 47
0.0
 48
0.0
140
0.18
141
0.09
142
0.0
143
25.4
144
1.0
145
0.0
146
1.0
147
0.09
 71
     0
 72
     0
 73
     1
 74
     1
 75
     0
 76
     0
 77
     0
 78
     0
170
     0
171
     2
172
     0
173
     0
174
     0
175
     0
176
     0
177
     0
178
     0
270
     2
271
     4
272
     4
273
     2
274
     2
340
11
275
     0
280
     0
281
     0
282
     0
283
     1
284
     0
285
     0
286
     0
287
     3
288
     0
  0
ENDTAB
  0
TABLE
  2
BLOCK_RECORD
  5
1
330
0
100
AcDbSymbolTable
 70
     1
  0
BLOCK_RECORD
  5
1F
330
1
100
AcDbSymbolTableRecord
100
AcDbBlockTableRecord
  2
*MODEL_SPACE
  0
BLOCK_RECORD
  5
1B
330
1
100
AcDbSymbolTableRecord
100
AcDbBlockTableRecord
  2
*PAPER_SPACE
  0
ENDTAB
  0
ENDSEC
  0
SECTION
  2
BLOCKS
  0
BLOCK
  5
20
330
1F
100
AcDbEntity
  8
0
100
AcDbBlockBegin
  2
*MODEL_SPACE
 70
     0
 71
     0
 10
0.0
 20
0.0
 30
0.0
  3
*MODEL_SPACE
  1

  0
ENDBLK
  5
21
330
1F
100
AcDbEntity
  8
0
100
AcDbBlockEnd
  0
BLOCK
  5
1C
330
1B
100
AcDbEntity
 67
     1
  8
0
100
AcDbBlockBegin
  2
*PAPER_SPACE
 70
     0
 71
     0
 10
0.0
 20
0.0
 30
0.0
  3
*PAPER_SPACE
  1

  0
ENDBLK
  5
1D
330
1B
100
AcDbEntity
 67
     1
  8
0
100
AcDbBlockEnd
  0
ENDSEC
  0
SECTION
  2
ENTITIES
  0
SPLINE
  5
3C
330
1F
100
AcDbEntity
  8
LAYER_1
 62
     7
100
AcDbSpline
210
0.0
220
0.0
230
1.0
 70
    11
 71
     3
 72
    17
 73
    13
 74
     0
 42
0.0000000001
 43
0.0000000001
 40
0.0
 40
0.0
 40
0.0
 40
0.0
 40
1.0
 40
1.0
 40
1.0
 40
2.0
 40
2.0
 40
2.0
 40
3.0
 40
3.0
 40
3.0
 40
4.0
 40
4.0
 40
4.0
 40
4.0
 10
55.53910997565198
 20
-28.23343740093553
 30
0.0
 10
55.53910997565198
 20
-42.04052794040648
 30
0.0
 10
44.34615961492234
 20
-53.23330604624822
 30
0.0
 10
30.53906907545139
 20
-53.23330604624822
 30
0.0
 10
16.73197853598043
 20
-53.23330604624822
 30
0.0
 10
5.539028175250802
 20
-42.04052794040648
 30
0.0
 10
5.539028175250802
 20
-28.23343740093553
 30
0.0
 10
5.539028175250802
 20
-14.42634686146457
 30
0.0
 10
16.73197853598043
 20
-3.233396500734943
 30
0.0
 10
30.53906907545139
 20
-3.233396500734943
 30
0.0
 10
44.34615961492234
 20
-3.233396500734943
 30
0.0
 10
55.53910997565198
 20
-14.42634686146457
 30
0.0
 10
55.53910997565198
 20
-28.23343740093553
 30
0.0
  0
SPLINE
  5
3D
330
1F
100
AcDbEntity
  8
LAYER_1
 62
     7
100
AcDbSpline
210
0.0
220
0.0
230
1.0
 70
    11
 71
     3
 72
    17
 73
    13
 74
     0
 42
0.0000000001
 43
0.0000000001
 40
0.0
 40
0.0
 40
0.0
 40
0.0
 40
1.0
 40
1.0
 40
1.0
 40
2.0
 40
2.0
 40
2.0
 40
3.0
 40
3.0
 40
3.0
 40
4.0
 40
4.0
 40
4.0
 40
4.0
 10
55.53928223053987
 20
-102.9205729702265
 30
0.0
 10
55.53928223053987
 20
-116.7278357645853
 30
0.0
 10
44.34615961492234
 20
-127.920613870427
 30
0.0
 10
30.53889682056349
 20
-127.920613870427
 30
0.0
 10
16.73197853598043
 20
-127.920613870427
 30
0.0
 10
5.539028175250802
 20
-116.7278357645853
 30
0.0
 10
5.539028175250802
 20
-102.9205729702265
 30
0.0
 10
5.539028175250802
 20
-89.1136546856434
 30
0.0
 10
16.73197853598043
 20
-77.92053207002587
 30
0.0
 10
30.53889682056349
 20
-77.92053207002587
 30
0.0
 10
44.34615961492234
 20
-77.92053207002587
 30
0.0
 10
55.53928223053987
 20
-89.1136546856434
 30
0.0
 10
55.53928223053987
 20
-102.9205729702265
 30
0.0
  0
SPLINE
  5
3E
330
1F
100
AcDbEntity
  8
LAYER_1
 62
     7
100
AcDbSpline
210
0.0
220
0.0
230
1.0
 70
    11
 71
     3
 72
    17
 73
    13
 74
     0
 42
0.0000000001
 43
0.0000000001
 40
0.0
 40
0.0
 40
0.0
 40
0.0
 40
1.0
 40
1.0
 40
1.0
 40
2.0
 40
2.0
 40
2.0
 40
3.0
 40
3.0
 40
3.0
 40
4.0
 40
4.0
 40
4.0
 40
4.0
 10
164.4606987304719
 20
-28.07995829581833
 30
0.0
 10
164.4606987304719
 20
-41.88722109017719
 30
0.0
 10
153.2675761148544
 20
-53.07999919601892
 30
0.0
 10
139.4603133204955
 20
-53.07999919601892
 30
0.0
 10
125.6533950359125
 20
-53.07999919601892
 30
0.0
 10
114.4606169300707
 20
-41.88722109017719
 30
0.0
 10
114.4606169300707
 20
-28.07995829581833
 30
0.0
 10
114.4606169300707
 20
-14.27304001123528
 30
0.0
 10
125.6533950359125
 20
-3.080089650505648
 30
0.0
 10
139.4603133204955
 20
-3.080089650505648
 30
0.0
 10
153.2675761148544
 20
-3.080089650505648
 30
0.0
 10
164.4606987304719
 20
-14.27304001123528
 30
0.0
 10
164.4606987304719
 20
-28.07995829581833
 30
0.0
  0
SPLINE
  5
3F
330
1F
100
AcDbEntity
  8
LAYER_1
 62
     7
100
AcDbSpline
210
0.0
220
0.0
230
1.0
 70
    11
 71
     3
 72
    17
 73
    13
 74
     0
 42
0.0000000001
 43
0.0000000001
 40
0.0
 40
0.0
 40
0.0
 40
0.0
 40
1.0
 40
1.0
 40
1.0
 40
2.0
 40
2.0
 40
2.0
 40
3.0
 40
3.0
 40
3.0
 40
4.0
 40
4.0
 40
4.0
 40
4.0
 10
164.4603542206961
 20
-102.9202284604507
 30
0.0
 10
164.4603542206961
 20
-116.7274912548095
 30
0.0
 10
153.2672316050786
 20
-127.9202693606512
 30
0.0
 10
139.4599688107197
 20
-127.9202693606512
 30
0.0
 10
125.6530505261367
 20
-127.9202693606512
 30
0.0
 10
114.4602724202949
 20
-116.7274912548095
 30
0.0
 10
114.4602724202949
 20
-102.9202284604507
 30
0.0
 10
114.4602724202949
 20
-89.11331017586761
 30
0.0
 10
125.6530505261367
 20
-77.92053207002587
 30
0.0
 10
139.4599688107197
 20
-77.92053207002587
 30
0.0
 10
153.2672316050786
 20
-77.92053207002587
 30
0.0
 10
164.4603542206961
 20
-89.11331017586761
 30
0.0
 10
164.4603542206961
 20
-102.9202284604507
 30
0.0
  0
SPLINE
  5
40
330
1F
100
AcDbEntity
  8
LAYER_1
 62
     7
100
AcDbSpline
210
0.0
220
0.0
230
1.0
 70
    11
 71
     3
 72
    17
 73
    13
 74
     0
 42
0.0000000001
 43
0.0000000001
 40
0.0
 40
0.0
 40
0.0
 40
0.0
 40
1.0
 40
1.0
 40
1.0
 40
2.0
 40
2.0
 40
2.0
 40
3.0
 40
3.0
 40
3.0
 40
4.0
 40
4.0
 40
4.0
 40
4.0
 10
79.00005345248317
 20
-58.0002878139398
 30
0.0
 10
79.00005345248317
 20
-58.82866156984169
 30
0.0
 10
78.32843164456854
 20
-59.50028337775632
 30
0.0
 10
77.50005788866666
 20
-59.50028337775632
 30
0.0
 10
76.67168413276477
 20
-59.50028337775632
 30
0.0
 10
76.00006232485013
 20
-58.82866156984169
 30
0.0
 10
76.00006232485013
 20
-58.0002878139398
 30
0.0
 10
76.00006232485013
 20
-57.17191405803791
 30
0.0
 10
76.67168413276477
 20
-56.50029225012328
 30
0.0
 10
77.50005788866666
 20
-56.50029225012328
 30
0.0
 10
78.32843164456854
 20
-56.50029225012328
 30
0.0
 10
79.00005345248317
 20
-57.17191405803791
 30
0.0
 10
79.00005345248317
 20
-58.0002878139398
 30
0.0
  0
SPLINE
  5
41
330
1F
100
AcDbEntity
  8
LAYER_1
 62
     7
100
AcDbSpline
210
0.0
220
0.0
230
1.0
 70
    11
 71
     3
 72
    17
 73
    13
 74
     0
 42
0.0000000001
 43
0.0000000001
 40
0.0
 40
0.0
 40
0.0
 40
0.0
 40
1.0
 40
1.0
 40
1.0
 40
2.0
 40
2.0
 40
2.0
 40
3.0
 40
3.0
 40
3.0
 40
4.0
 40
4.0
 40
4.0
 40
4.0
 10
94.00018134553626
 20
-72.81696425138144
 30
0.0
 10
94.00018134553626
 20
-73.64516575239543
 30
0.0
 10
93.32838728273373
 20
-74.31695981519795
 30
0.0
 10
92.50018578171974
 20
-74.31695981519795
 30
0.0
 10
91.67163977092996
 20
-74.31695981519795
 30
0.0
 10
91.00019021790322
 20
-73.64516575239543
 30
0.0
 10
91.00019021790322
 20
-72.81696425138144
 30
0.0
 10
91.00019021790322
 20
-71.98876275036744
 30
0.0
 10
91.67163977092996
 20
-71.31696868756491
 30
0.0
 10
92.50018578171974
 20
-71.31696868756491
 30
0.0
 10
93.32838728273373
 20
-71.31696868756491
 30
0.0
 10
94.00018134553626
 20
-71.98876275036744
 30
0.0
 10
94.00018134553626
 20
-72.81696425138144
 30
0.0
  0
SPLINE
  5
42
330
1F
100
AcDbEntity
  8
LAYER_1
 62
     7
100
AcDbSpline
210
0.0
220
0.0
230
1.0
 70
    11
 71
     3
 72
    17
 73
    13
 74
     0
 42
0.0000000001
 43
0.0000000001
 40
0.0
 40
0.0
 40
0.0
 40
0.0
 40
1.0
 40
1.0
 40
1.0
 40
2.0
 40
2.0
 40
2.0
 40
3.0
 40
3.0
 40
3.0
 40
4.0
 40
4.0
 40
4.0
 40
4.0
 10
78.99988119759527
 20
-72.81696425138144
 30
0.0
 10
78.99988119759527
 20
-73.64516575239543
 30
0.0
 10
78.32825938968064
 20
-74.31695981519795
 30
0.0
 10
77.49988563377876
 20
-74.31695981519795
 30
0.0
 10
76.67151187787687
 20
-74.31695981519795
 30
0.0
 10
75.99989006996223
 20
-73.64516575239543
 30
0.0
 10
75.99989006996223
 20
-72.81696425138144
 30
0.0
 10
75.99989006996223
 20
-71.98876275036744
 30
0.0
 10
76.67151187787687
 20
-71.31696868756491
 30
0.0
 10
77.49988563377876
 20
-71.31696868756491
 30
0.0
 10
78.32825938968064
 20
-71.31696868756491
 30
0.0
 10
78.99988119759527
 20
-71.98876275036744
 30
0.0
 10
78.99988119759527
 20
-72.81696425138144
 30
0.0
  0
SPLINE
  5
43
330
1F
100
AcDbEntity
  8
LAYER_1
 62
     7
100
AcDbSpline
210
0.0
220
0.0
230
1.0
 70
    11
 71
     3
 72
    17
 73
    13
 74
     0
 42
0.0000000001
 43
0.0000000001
 40
0.0
 40
0.0
 40
0.0
 40
0.0
 40
1.0
 40
1.0
 40
1.0
 40
2.0
 40
2.0
 40
2.0
 40
3.0
 40
3.0
 40
3.0
 40
4.0
 40
4.0
 40
4.0
 40
4.0
 10
94.00018134553626
 20
-58.0002878139398
 30
0.0
 10
94.00018134553626
 20
-58.82848931495379
 30
0.0
 10
93.32838728273373
 20
-59.50028337775632
 30
0.0
 10
92.50018578171974
 20
-59.50028337775632
 30
0.0
 10
91.67198428070576
 20
-59.50028337775632
 30
0.0
 10
91.00019021790322
 20
-58.82848931495379
 30
0.0
 10
91.00019021790322
 20
-58.0002878139398
 30
0.0
 10
91.00019021790322
 20
-57.17208631292581
 30
0.0
 10
91.67198428070576
 20
-56.50029225012328
 30
0.0
 10
92.50018578171974
 20
-56.50029225012328
 30
0.0
 10
93.32838728273373
 20
-56.50029225012328
 30
0.0
 10
94.00018134553626
 20
-57.17208631292581
 30
0.0
 10
94.00018134553626
 20
-58.0002878139398
 30
0.0
  0
SPLINE
  5
44
330
1F
100
AcDbEntity
  8
LAYER_1
 62
     7
100
AcDbSpline
210
0.0
220
0.0
230
1.0
 70
    11
 71
     3
 72
    17
 73
    13
 74
     0
 42
0.0000000001
 43
0.0000000001
 40
0.0
 40
0.0
 40
0.0
 40
0.0
 40
1.0
 40
1.0
 40
1.0
 40
2.0
 40
2.0
 40
2.0
 40
3.0
 40
3.0
 40
3.0
 40
4.0
 40
4.0
 40
4.0
 40
4.0
 10
79.00005345248317
 20
-99.79242420599725
 30
0.0
 10
79.00005345248317
 20
-100.6206257070112
 30
0.0
 10
78.32843164456854
 20
-101.2924197698138
 30
0.0
 10
77.50005788866666
 20
-101.2924197698138
 30
0.0
 10
76.67168413276477
 20
-101.2924197698138
 30
0.0
 10
76.00006232485013
 20
-100.6206257070112
 30
0.0
 10
76.00006232485013
 20
-99.79242420599725
 30
0.0
 10
76.00006232485013
 20
-98.96387819520746
 30
0.0
 10
76.67168413276477
 20
-98.29242864218072
 30
0.0
 10
77.50005788866666
 20
-98.29242864218072
 30
0.0
 10
78.32843164456854
 20
-98.29242864218072
 30
0.0
 10
79.00005345248317
 20
-98.96387819520746
 30
0.0
 10
79.00005345248317
 20
-99.79242420599725
 30
0.0
  0
SPLINE
  5
45
330
1F
100
AcDbEntity
  8
LAYER_1
 62
     7
100
AcDbSpline
210
0.0
220
0.0
230
1.0
 70
    11
 71
     3
 72
    17
 73
    13
 74
     0
 42
0.0000000001
 43
0.0000000001
 40
0.0
 40
0.0
 40
0.0
 40
0.0
 40
1.0
 40
1.0
 40
1.0
 40
2.0
 40
2.0
 40
2.0
 40
3.0
 40
3.0
 40
3.0
 40
4.0
 40
4.0
 40
4.0
 40
4.0
 10
94.00018134553626
 20
-114.6091006434389
 30
0.0
 10
94.00018134553626
 20
-115.4373021444529
 30
0.0
 10
93.32838728273373
 20
-116.1090962072554
 30
0.0
 10
92.50018578171974
 20
-116.1090962072554
 30
0.0
 10
91.67163977092996
 20
-116.1090962072554
 30
0.0
 10
91.00019021790322
 20
-115.4373021444529
 30
0.0
 10
91.00019021790322
 20
-114.6091006434389
 30
0.0
 10
91.00019021790322
 20
-113.7808991424249
 30
0.0
 10
91.67163977092996
 20
-113.1091050796224
 30
0.0
 10
92.50018578171974
 20
-113.1091050796224
 30
0.0
 10
93.32838728273373
 20
-113.1091050796224
 30
0.0
 10
94.00018134553626
 20
-113.7808991424249
 30
0.0
 10
94.00018134553626
 20
-114.6091006434389
 30
0.0
  0
SPLINE
  5
46
330
1F
100
AcDbEntity
  8
LAYER_1
 62
     7
100
AcDbSpline
210
0.0
220
0.0
230
1.0
 70
    11
 71
     3
 72
    17
 73
    13
 74
     0
 42
0.0000000001
 43
0.0000000001
 40
0.0
 40
0.0
 40
0.0
 40
0.0
 40
1.0
 40
1.0
 40
1.0
 40
2.0
 40
2.0
 40
2.0
 40
3.0
 40
3.0
 40
3.0
 40
4.0
 40
4.0
 40
4.0
 40
4.0
 10
78.99988119759527
 20
-114.6091006434389
 30
0.0
 10
78.99988119759527
 20
-115.4373021444529
 30
0.0
 10
78.32825938968064
 20
-116.1090962072554
 30
0.0
 10
77.49988563377876
 20
-116.1090962072554
 30
0.0
 10
76.67151187787687
 20
-116.1090962072554
 30
0.0
 10
75.99989006996223
 20
-115.4373021444529
 30
0.0
 10
75.99989006996223
 20
-114.6091006434389
 30
0.0
 10
75.99989006996223
 20
-113.7808991424249
 30
0.0
 10
76.67151187787687
 20
-113.1091050796224
 30
0.0
 10
77.49988563377876
 20
-113.1091050796224
 30
0.0
 10
78.32825938968064
 20
-113.1091050796224
 30
0.0
 10
78.99988119759527
 20
-113.7808991424249
 30
0.0
 10
78.99988119759527
 20
-114.6091006434389
 30
0.0
  0
SPLINE
  5
47
330
1F
100
AcDbEntity
  8
LAYER_1
 62
     7
100
AcDbSpline
210
0.0
220
0.0
230
1.0
 70
    11
 71
     3
 72
    17
 73
    13
 74
     0
 42
0.0000000001
 43
0.0000000001
 40
0.0
 40
0.0
 40
0.0
 40
0.0
 40
1.0
 40
1.0
 40
1.0
 40
2.0
 40
2.0
 40
2.0
 40
3.0
 40
3.0
 40
3.0
 40
4.0
 40
4.0
 40
4.0
 40
4.0
 10
94.00018134553626
 20
-99.79242420599725
 30
0.0
 10
94.00018134553626
 20
-100.6206257070112
 30
0.0
 10
93.32838728273373
 20
-101.2924197698138
 30
0.0
 10
92.50018578171974
 20
-101.2924197698138
 30
0.0
 10
91.67198428070576
 20
-101.2924197698138
 30
0.0
 10
91.00019021790322
 20
-100.6206257070112
 30
0.0
 10
91.00019021790322
 20
-99.79242420599725
 30
0.0
 10
91.00019021790322
 20
-98.96422270498326
 30
0.0
 10
91.67198428070576
 20
-98.29242864218072
 30
0.0
 10
92.50018578171974
 20
-98.29242864218072
 30
0.0
 10
93.32838728273373
 20
-98.29242864218072
 30
0.0
 10
94.00018134553626
 20
-98.96422270498326
 30
0.0
 10
94.00018134553626
 20
-99.79242420599725
 30
0.0
  0
SPLINE
  5
48
330
1F
100
AcDbEntity
  8
LAYER_1
 62
     7
100
AcDbSpline
210
0.0
220
0.0
230
1.0
 70
    11
 71
     3
 72
    17
 73
    13
 74
     0
 42
0.0000000001
 43
0.0000000001
 40
0.0
 40
0.0
 40
0.0
 40
0.0
 40
1.0
 40
1.0
 40
1.0
 40
2.0
 40
2.0
 40
2.0
 40
3.0
 40
3.0
 40
3.0
 40
4.0
 40
4.0
 40
4.0
 40
4.0
 10
79.00005345248317
 20
-16.26447877022503
 30
0.0
 10
79.00005345248317
 20
-17.09268027123902
 30
0.0
 10
78.32843164456854
 20
-17.76447433404155
 30
0.0
 10
77.50005788866666
 20
-17.76447433404155
 30
0.0
 10
76.67168413276477
 20
-17.76447433404155
 30
0.0
 10
76.00006232485013
 20
-17.09268027123902
 30
0.0
 10
76.00006232485013
 20
-16.26447877022503
 30
0.0
 10
76.00006232485013
 20
-15.43593275943524
 30
0.0
 10
76.67168413276477
 20
-14.76448320640851
 30
0.0
 10
77.50005788866666
 20
-14.76448320640851
 30
0.0
 10
78.32843164456854
 20
-14.76448320640851
 30
0.0
 10
79.00005345248317
 20
-15.43593275943524
 30
0.0
 10
79.00005345248317
 20
-16.26447877022503
 30
0.0
  0
SPLINE
  5
49
330
1F
100
AcDbEntity
  8
LAYER_1
 62
     7
100
AcDbSpline
210
0.0
220
0.0
230
1.0
 70
    11
 71
     3
 72
    17
 73
    13
 74
     0
 42
0.0000000001
 43
0.0000000001
 40
0.0
 40
0.0
 40
0.0
 40
0.0
 40
1.0
 40
1.0
 40
1.0
 40
2.0
 40
2.0
 40
2.0
 40
3.0
 40
3.0
 40
3.0
 40
4.0
 40
4.0
 40
4.0
 40
4.0
 10
94.00018134553626
 20
-31.08115520766666
 30
0.0
 10
94.00018134553626
 20
-31.90935670868065
 30
0.0
 10
93.32838728273373
 20
-32.58115077148318
 30
0.0
 10
92.50018578171974
 20
-32.58115077148318
 30
0.0
 10
91.67163977092996
 20
-32.58115077148318
 30
0.0
 10
91.00019021790322
 20
-31.90935670868065
 30
0.0
 10
91.00019021790322
 20
-31.08115520766666
 30
0.0
 10
91.00019021790322
 20
-30.25295370665267
 30
0.0
 10
91.67163977092996
 20
-29.58115964385014
 30
0.0
 10
92.50018578171974
 20
-29.58115964385014
 30
0.0
 10
93.32838728273373
 20
-29.58115964385014
 30
0.0
 10
94.00018134553626
 20
-30.25295370665267
 30
0.0
 10
94.00018134553626
 20
-31.08115520766666
 30
0.0
  0
SPLINE
  5
4A
330
1F
100
AcDbEntity
  8
LAYER_1
 62
     7
100
AcDbSpline
210
0.0
220
0.0
230
1.0
 70
    11
 71
     3
 72
    17
 73
    13
 74
     0
 42
0.0000000001
 43
0.0000000001
 40
0.0
 40
0.0
 40
0.0
 40
0.0
 40
1.0
 40
1.0
 40
1.0
 40
2.0
 40
2.0
 40
2.0
 40
3.0
 40
3.0
 40
3.0
 40
4.0
 40
4.0
 40
4.0
 40
4.0
 10
78.99988119759527
 20
-31.08115520766666
 30
0.0
 10
78.99988119759527
 20
-31.90935670868065
 30
0.0
 10
78.32825938968064
 20
-32.58115077148318
 30
0.0
 10
77.49988563377876
 20
-32.58115077148318
 30
0.0
 10
76.67151187787687
 20
-32.58115077148318
 30
0.0
 10
75.99989006996223
 20
-31.90935670868065
 30
0.0
 10
75.99989006996223
 20
-31.08115520766666
 30
0.0
 10
75.99989006996223
 20
-30.25295370665267
 30
0.0
 10
76.67151187787687
 20
-29.58115964385014
 30
0.0
 10
77.49988563377876
 20
-29.58115964385014
 30
0.0
 10
78.32825938968064
 20
-29.58115964385014
 30
0.0
 10
78.99988119759527
 20
-30.25295370665267
 30
0.0
 10
78.99988119759527
 20
-31.08115520766666
 30
0.0
  0
SPLINE
  5
4B
330
1F
100
AcDbEntity
  8
LAYER_1
 62
     7
100
AcDbSpline
210
0.0
220
0.0
230
1.0
 70
    11
 71
     3
 72
    17
 73
    13
 74
     0
 42
0.0000000001
 43
0.0000000001
 40
0.0
 40
0.0
 40
0.0
 40
0.0
 40
1.0
 40
1.0
 40
1.0
 40
2.0
 40
2.0
 40
2.0
 40
3.0
 40
3.0
 40
3.0
 40
4.0
 40
4.0
 40
4.0
 40
4.0
 10
94.00018134553626
 20
-16.26447877022503
 30
0.0
 10
94.00018134553626
 20
-17.09268027123902
 30
0.0
 10
93.32838728273373
 20
-17.76447433404155
 30
0.0
 10
92.50018578171974
 20
-17.76447433404155
 30
0.0
 10
91.67198428070576
 20
-17.76447433404155
 30
0.0
 10
91.00019021790322
 20
-17.09268027123902
 30
0.0
 10
91.00019021790322
 20
-16.26447877022503
 30
0.0
 10
91.00019021790322
 20
-15.43627726921104
 30
0.0
 10
91.67198428070576
 20
-14.76448320640851
 30
0.0
 10
92.50018578171974
 20
-14.76448320640851
 30
0.0
 10
93.32838728273373
 20
-14.76448320640851
 30
0.0
 10
94.00018134553626
 20
-15.43627726921104
 30
0.0
 10
94.00018134553626
 20
-16.26447877022503
 30
0.0
  0
POLYLINE
  5
4C
330
1F
100
AcDbEntity
  8
LAYER_1
 62
     7
100
AcDb2dPolyline
 66
     1
 10
0.0
 20
0.0
 30
0.0
  0
VERTEX
  5
4D
330
4C
100
AcDbEntity
  8
LAYER_1
 62
     7
100
AcDbVertex
100
AcDb2dVertex
 10
170.0000714154985
 20
-131.0005312660448
 30
0.0
  0
VERTEX
  5
4E
330
4C
100
AcDbEntity
  8
LAYER_1
 62
     7
100
AcDbVertex
100
AcDb2dVertex
 10
0.0
 20
-131.0005312660448
 30
0.0
  0
VERTEX
  5
4F
330
4C
100
AcDbEntity
  8
LAYER_1
 62
     7
100
AcDbVertex
100
AcDb2dVertex
 10
0.0
 20
0.0
 30
0.0
  0
VERTEX
  5
50
330
4C
100
AcDbEntity
  8
LAYER_1
 62
     7
100
AcDbVertex
100
AcDb2dVertex
 10
170.0000714154985
 20
0.0
 30
0.0
  0
VERTEX
  5
51
330
4C
100
AcDbEntity
  8
LAYER_1
 62
     7
100
AcDbVertex
100
AcDb2dVertex
 10
170.0000714154985
 20
-131.0005312660448
 30
0.0
  0
SEQEND
  5
52
330
4C
100
AcDbEntity
  8
LAYER_1
  0
SPLINE
  5
53
330
1F
100
AcDbEntity
  8
LAYER_1
 62
     7
100
AcDbSpline
210
0.0
220
0.0
230
1.0
 70
    11
 71
     3
 72
    17
 73
    13
 74
     0
 42
0.0000000001
 43
0.0000000001
 40
0.0
 40
0.0
 40
0.0
 40
0.0
 40
1.0
 40
1.0
 40
1.0
 40
2.0
 40
2.0
 40
2.0
 40
3.0
 40
3.0
 40
3.0
 40
4.0
 40
4.0
 40
4.0
 40
4.0
 10
164.4603542206961
 20
-123.4533556076781
 30
0.0
 10
164.4603542206961
 20
-124.8338062792934
 30
0.0
 10
163.3410419591343
 20
-125.9531185408551
 30
0.0
 10
161.9605912875191
 20
-125.9531185408551
 30
0.0
 10
160.579796106128
 20
-125.9531185408551
 30
0.0
 10
159.4604838445663
 20
-124.8338062792934
 30
0.0
 10
159.4604838445663
 20
-123.4533556076781
 30
0.0
 10
159.4604838445663
 20
-122.0725604262871
 30
0.0
 10
160.579796106128
 20
-120.9532481647253
 30
0.0
 10
161.9605912875191
 20
-120.9532481647253
 30
0.0
 10
163.3410419591343
 20
-120.9532481647253
 30
0.0
 10
164.4603542206961
 20
-122.0725604262871
 30
0.0
 10
164.4603542206961
 20
-123.4533556076781
 30
0.0
  0
ENDSEC
  0
SECTION
  2
OBJECTS
  0
DICTIONARY
  5
C
330
0
100
AcDbDictionary
  3
ACAD_GROUP
350
D
  3
ACAD_LAYOUT
350
1A
  3
ACAD_MLINESTYLE
350
17
  3
ACAD_PLOTSETTINGS
350
19
  3
ACAD_TABLESTYLE
350
74
  3
ACAD_VISUALSTYLE
350
2A
  3
ACDBHEADERROUNDTRIPXREC
350
54
  0
DICTIONARY
  5
D
102
{ACAD_REACTORS
330
C
102
}
330
C
100
AcDbDictionary
  0
DICTIONARY
  5
1A
102
{ACAD_REACTORS
330
C
102
}
330
C
100
AcDbDictionary
  0
DICTIONARY
  5
17
102
{ACAD_REACTORS
330
C
102
}
330
C
100
AcDbDictionary
  3
STANDARD
350
18
  0
DICTIONARY
  5
19
102
{ACAD_REACTORS
330
C
102
}
330
C
100
AcDbDictionary
  0
DICTIONARY
  5
74
102
{ACAD_REACTORS
330
C
102
}
330
C
100
AcDbDictionary
  0
DICTIONARY
  5
2A
102
{ACAD_REACTORS
330
C
102
}
330
C
100
AcDbDictionary
  3
2DWIREFRAME
350
2F
  3
3DWIREFRAME
350
30
  3
3D_HIDDEN
350
31
  3
BASIC
350
32
  3
BRIGHTEN
350
36
  3
COLORCHANGE
350
3A
  3
CONCEPTUAL
350
34
  3
DIM
350
35
  3
FACEPATTERN
350
39
  3
FLAT
350
2B
  3
FLATWITHEDGES
350
2C
  3
GOURAUD
350
2D
  3
GOURAUDWITHEDGES
350
2E
  3
LINEPATTERN
350
38
  3
REALISTIC
350
33
  3
THICKEN
350
37
  0
DICTIONARY
  5
54
102
{ACAD_REACTORS
330
C
102
}
330
C
100
AcDbDictionary
  3
CEPSNTYPE
350
5D
  3
DIMSTYLEDATA
350
73
  3
FINGERPRINTGUID
350
5E
  3
HYPERLINKBASE
350
57
  3
INSUNITS
350
5C
  3
LAYOUTDICT
350
59
  3
LWETCUNION
350
5B
  3
PLOTSETDICT
350
5A
  3
PSVPSCALE
350
60
  3
PUCSBASE
350
63
  3
PUCSORGBACK
350
69
  3
PUCSORGBOTTOM
350
65
  3
PUCSORGFRONT
350
68
  3
PUCSORGLEFT
350
66
  3
PUCSORGRIGHT
350
67
  3
PUCSORGTOP
350
64
  3
PUCSORTHOREF
350
61
  3
PUCSORTHOVIEW
350
62
  3
STYLESHEET
350
58
  3
TSTACKALIGN
350
55
  3
TSTACKSIZE
350
56
  3
UCSBASE
350
6C
  3
UCSORGBACK
350
72
  3
UCSORGBOTTOM
350
6E
  3
UCSORGFRONT
350
71
  3
UCSORGLEFT
350
6F
  3
UCSORGRIGHT
350
70
  3
UCSORGTOP
350
6D
  3
UCSORTHOREF
350
6A
  3
UCSORTHOVIEW
350
6B
  3
VERSIONGUID
350
5F
  0
MLINESTYLE
  5
18
102
{ACAD_REACTORS
330
17
102
}
330
17
100
AcDbMlineStyle
  2
Standard
 70
     0
  3

 62
   256
 51
90.0
 52
90.0
 71
     2
 49
0.5
 62
   256
  6
BYLAYER
 49
-0.5
 62
   256
  6
BYLAYER
  0
VISUALSTYLE
  5
2F
102
{ACAD_REACTORS
330
2A
102
}
330
2A
100
AcDbVisualStyle
  2
2dWireframe
 70
     4
 71
     0
 72
     2
 73
     0
 90
        0
 40
-0.6
 41
-30.0
 62
     5
 63
     7
 74
     1
 91
        4
 64
     7
 65
   257
 75
     1
175
     1
 42
1.0
 92
        0
 66
   257
 43
1.0
 76
     1
 77
     6
 78
     2
 67
     7
 79
     5
170
     0
171
     0
290
     0
174
     0
 93
        1
 44
0.0
173
     0
291
     0
 45
0.0
1001
ACAD
1000
AcDbSavedByObjectVersion
1070
     0
  0
VISUALSTYLE
  5
30
102
{ACAD_REACTORS
330
2A
102
}
330
2A
100
AcDbVisualStyle
  2
3dWireframe
 70
     5
 71
     0
 72
     2
 73
     0
 90
        0
 40
-0.6
 41
-30.0
 62
     5
 63
     7
 74
     1
 91
        4
 64
     7
 65
   257
 75
     1
175
     1
 42
1.0
 92
        0
 66
   257
 43
1.0
 76
     1
 77
     6
 78
     2
 67
     7
 79
     5
170
     0
171
     0
290
     0
174
     0
 93
        1
 44
0.0
173
     0
291
     0
 45
0.0
1001
ACAD
1000
AcDbSavedByObjectVersion
1070
     0
  0
VISUALSTYLE
  5
31
102
{ACAD_REACTORS
330
2A
102
}
330
2A
100
AcDbVisualStyle
  2
3D Hidden
 70
     6
 71
     1
 72
     2
 73
     2
 90
        0
 40
-0.6
 41
-30.0
 62
     5
 63
     7
 74
     2
 91
        2
 64
     7
 65
   257
 75
     2
175
     1
 42
40.0
 92
        0
 66
   257
 43
1.0
 76
     1
 77
     6
 78
     2
 67
     7
 79
     3
170
     0
171
     0
290
     0
174
     0
 93
        1
 44
0.0
173
     0
291
     0
 45
0.0
1001
ACAD
1000
AcDbSavedByObjectVersion
1070
     0
  0
VISUALSTYLE
  5
32
102
{ACAD_REACTORS
330
2A
102
}
330
2A
100
AcDbVisualStyle
  2
Basic
 70
     7
 71
     1
 72
     0
 73
     1
 90
        0
 40
-0.6
 41
-30.0
 62
     5
 63
     7
 74
     0
 91
        4
 64
     7
 65
   257
 75
     1
175
     1
 42
1.0
 92
        8
 66
     7
 43
1.0
 76
     1
 77
     6
 78
     2
 67
     7
 79
     5
170
     0
171
     0
290
     0
174
     0
 93
        1
 44
0.0
173
     0
291
     1
 45
0.0
1001
ACAD
1000
AcDbSavedByObjectVersion
1070
     0
  0
VISUALSTYLE
  5
36
102
{ACAD_REACTORS
330
2A
102
}
330
2A
100
AcDbVisualStyle
  2
Brighten
 70
    12
 71
     2
 72
     2
 73
     0
 90
        0
 40
-0.6
 41
-30.0
 62
     5
 63
     7
 74
     1
 91
        4
 64
     7
 65
   257
 75
     1
175
     1
 42
1.0
 92
        8
 66
     7
 43
1.0
 76
     1
 77
     6
 78
     2
 67
     7
 79
     5
170
     0
171
     0
290
     0
174
     0
 93
        1
 44
50.0
173
     0
291
     1
 45
0.0
1001
ACAD
1000
AcDbSavedByObjectVersion
1070
     0
  0
VISUALSTYLE
  5
3A
102
{ACAD_REACTORS
330
2A
102
}
330
2A
100
AcDbVisualStyle
  2
ColorChange
 70
    16
 71
     2
 72
     2
 73
     3
 90
        0
 40
-0.6
 41
-30.0
 62
     5
 63
     8
 74
     1
 91
        4
 64
     7
 65
   257
 75
     1
175
     1
 42
1.0
 92
        8
 66
     8
 43
1.0
 76
     1
 77
     6
 78
     2
 67
     7
 79
     5
170
     0
171
     0
290
     0
174
     0
 93
        1
 44
0.0
173
     0
291
     1
 45
0.0
1001
ACAD
1000
AcDbSavedByObjectVersion
1070
     0
  0
VISUALSTYLE
  5
34
102
{ACAD_REACTORS
330
2A
102
}
330
2A
100
AcDbVisualStyle
  2
Conceptual
 70
     9
 71
     3
 72
     2
 73
     0
 90
        0
 40
-0.6
 41
-30.0
 62
     5
 63
     7
 74
     2
 91
        2
 64
     7
 65
   257
 75
     1
175
     1
 42
40.0
 92
        8
 66
     7
 43
1.0
 76
     1
 77
     6
 78
     2
 67
     7
 79
     3
170
     0
171
     0
290
     0
174
     0
 93
        1
 44
0.0
173
     0
291
     0
 45
0.0
1001
ACAD
1000
AcDbSavedByObjectVersion
1070
     0
  0
VISUALSTYLE
  5
35
102
{ACAD_REACTORS
330
2A
102
}
330
2A
100
AcDbVisualStyle
  2
Dim
 70
    11
 71
     2
 72
     2
 73
     0
 90
        0
 40
-0.6
 41
-30.0
 62
     5
 63
     7
 74
     1
 91
        4
 64
     7
 65
   257
 75
     1
175
     1
 42
1.0
 92
        8
 66
     7
 43
1.0
 76
     1
 77
     6
 78
     2
 67
     7
 79
     5
170
     0
171
     0
290
     0
174
     0
 93
        1
 44
-50.0
173
     0
291
     1
 45
0.0
1001
ACAD
1000
AcDbSavedByObjectVersion
1070
     0
  0
VISUALSTYLE
  5
39
102
{ACAD_REACTORS
330
2A
102
}
330
2A
100
AcDbVisualStyle
  2
Facepattern
 70
    15
 71
     2
 72
     2
 73
     0
 90
        0
 40
-0.6
 41
-30.0
 62
     5
 63
     7
 74
     1
 91
        4
 64
     7
 65
   257
 75
     1
175
     1
 42
1.0
 92
        8
 66
     7
 43
1.0
 76
     1
 77
     6
 78
     2
 67
     7
 79
     5
170
     0
171
     0
290
     0
174
     0
 93
        1
 44
0.0
173
     0
291
     1
 45
0.0
1001
ACAD
1000
AcDbSavedByObjectVersion
1070
     0
  0
VISUALSTYLE
  5
2B
102
{ACAD_REACTORS
330
2A
102
}
330
2A
100
AcDbVisualStyle
  2
Flat
 70
     0
 71
     2
 72
     1
 73
     1
 90
        2
 40
-0.6
 41
30.0
 62
     5
 63
     7
 74
     0
 91
        4
 64
     7
 65
   257
 75
     1
175
     1
 42
1.0
 92
        8
 66
     7
 43
1.0
 76
     1
 77
     6
 78
     2
 67
     7
 79
     5
170
     0
171
     0
290
     0
174
     0
 93
       13
 44
0.0
173
     0
291
     1
 45
0.0
1001
ACAD
1000
AcDbSavedByObjectVersion
1070
     0
  0
VISUALSTYLE
  5
2C
102
{ACAD_REACTORS
330
2A
102
}
330
2A
100
AcDbVisualStyle
  2
FlatWithEdges
 70
     1
 71
     2
 72
     1
 73
     1
 90
        2
 40
-0.6
 41
30.0
 62
     5
 63
     7
 74
     1
 91
        4
 64
     7
 65
   257
 75
     1
175
     1
 42
1.0
 92
        0
 66
   257
 43
1.0
 76
     1
 77
     6
 78
     2
 67
     7
 79
     5
170
     0
171
     0
290
     0
174
     0
 93
       13
 44
0.0
173
     0
291
     1
 45
0.0
1001
ACAD
1000
AcDbSavedByObjectVersion
1070
     0
  0
VISUALSTYLE
  5
2D
102
{ACAD_REACTORS
330
2A
102
}
330
2A
100
AcDbVisualStyle
  2
Gouraud
 70
     2
 71
     2
 72
     2
 73
     1
 90
        2
 40
-0.6
 41
30.0
 62
     5
 63
     7
 74
     0
 91
        4
 64
     7
 65
   257
 75
     1
175
     1
 42
1.0
 92
        0
 66
     7
 43
1.0
 76
     1
 77
     6
 78
     2
 67
     7
 79
     5
170
     0
171
     0
290
     0
174
     0
 93
       13
 44
0.0
173
     0
291
     1
 45
0.0
1001
ACAD
1000
AcDbSavedByObjectVersion
1070
     0
  0
VISUALSTYLE
  5
2E
102
{ACAD_REACTORS
330
2A
102
}
330
2A
100
AcDbVisualStyle
  2
GouraudWithEdges
 70
     3
 71
     2
 72
     2
 73
     1
 90
        2
 40
-0.6
 41
30.0
 62
     5
 63
     7
 74
     1
 91
        4
 64
     7
 65
   257
 75
     1
175
     1
 42
1.0
 92
        0
 66
   257
 43
1.0
 76
     1
 77
     6
 78
     2
 67
     7
 79
     5
170
     0
171
     0
290
     0
174
     0
 93
       13
 44
0.0
173
     0
291
     1
 45
0.0
1001
ACAD
1000
AcDbSavedByObjectVersion
1070
     0
  0
VISUALSTYLE
  5
38
102
{ACAD_REACTORS
330
2A
102
}
330
2A
100
AcDbVisualStyle
  2
Linepattern
 70
    14
 71
     2
 72
     2
 73
     0
 90
        0
 40
-0.6
 41
-30.0
 62
     5
 63
     7
 74
     1
 91
        4
 64
     7
 65
   257
 75
     7
175
     7
 42
1.0
 92
        8
 66
     7
 43
1.0
 76
     1
 77
     6
 78
     2
 67
     7
 79
     5
170
     0
171
     0
290
     0
174
     0
 93
        1
 44
0.0
173
     0
291
     1
 45
0.0
1001
ACAD
1000
AcDbSavedByObjectVersion
1070
     0
  0
VISUALSTYLE
  5
33
102
{ACAD_REACTORS
330
2A
102
}
330
2A
100
AcDbVisualStyle
  2
Realistic
 70
     8
 71
     2
 72
     2
 73
     0
 90
        0
 40
-0.6
 41
-30.0
 62
     5
 63
     7
 74
     1
 91
        0
 64
     7
 65
   257
 75
     1
175
     1
 42
1.0
 92
        8
 66
     8
 43
1.0
 76
     1
 77
     6
 78
     2
 67
     7
 79
     5
170
     0
171
     0
290
     0
174
     0
 93
       13
 44
0.0
173
     0
291
     0
 45
0.0
1001
ACAD
1000
AcDbSavedByObjectVersion
1070
     0
  0
VISUALSTYLE
  5
37
102
{ACAD_REACTORS
330
2A
102
}
330
2A
100
AcDbVisualStyle
  2
Thicken
 70
    13
 71
     2
 72
     2
 73
     0
 90
        0
 40
-0.6
 41
-30.0
 62
     5
 63
     7
 74
     1
 91
        4
 64
     7
 65
   257
 75
     1
175
     1
 42
1.0
 92
       12
 66
     7
 43
1.0
 76
     1
 77
     6
 78
     2
 67
     7
 79
     5
170
     0
171
     0
290
     0
174
     0
 93
        1
 44
0.0
173
     0
291
     1
 45
0.0
1001
ACAD
1000
AcDbSavedByObjectVersion
1070
     0
  0
XRECORD
  5
5D
102
{ACAD_REACTORS
330
54
102
}
330
54
100
AcDbXrecord
 90
        0
  0
XRECORD
  5
73
102
{ACAD_REACTORS
330
54
102
}
330
54
100
AcDbXrecord
1000
DSTYLE
1002
{
1070
   340
340
11
1002
}
  0
XRECORD
  5
5E
102
{ACAD_REACTORS
330
54
102
}
330
54
100
AcDbXrecord
  1
{F0E90007-502D-D47F-5AB7-B57D8A3489AF}
  0
XRECORD
  5
57
102
{ACAD_REACTORS
330
54
102
}
330
54
100
AcDbXrecord
  1

  0
XRECORD
  5
5C
102
{ACAD_REACTORS
330
54
102
}
330
54
100
AcDbXrecord
 90
        1
  0
XRECORD
  5
59
102
{ACAD_REACTORS
330
54
102
}
330
54
100
AcDbXrecord
340
1A
  0
XRECORD
  5
5B
102
{ACAD_REACTORS
330
54
102
}
330
54
100
AcDbXrecord
 90
    10269
  0
XRECORD
  5
5A
102
{ACAD_REACTORS
330
54
102
}
330
54
100
AcDbXrecord
340
19
  0
XRECORD
  5
60
102
{ACAD_REACTORS
330
54
102
}
330
54
100
AcDbXrecord
 40
0.0
  0
XRECORD
  5
63
102
{ACAD_REACTORS
330
54
102
}
330
54
100
AcDbXrecord
340
0
  0
XRECORD
  5
69
102
{ACAD_REACTORS
330
54
102
}
330
54
100
AcDbXrecord
 10
0.0
 20
0.0
 30
0.0
  0
XRECORD
  5
65
102
{ACAD_REACTORS
330
54
102
}
330
54
100
AcDbXrecord
 10
0.0
 20
0.0
 30
0.0
  0
XRECORD
  5
68
102
{ACAD_REACTORS
330
54
102
}
330
54
100
AcDbXrecord
 10
0.0
 20
0.0
 30
0.0
  0
XRECORD
  5
66
102
{ACAD_REACTORS
330
54
102
}
330
54
100
AcDbXrecord
 10
0.0
 20
0.0
 30
0.0
  0
XRECORD
  5
67
102
{ACAD_REACTORS
330
54
102
}
330
54
100
AcDbXrecord
 10
0.0
 20
0.0
 30
0.0
  0
XRECORD
  5
64
102
{ACAD_REACTORS
330
54
102
}
330
54
100
AcDbXrecord
 10
0.0
 20
0.0
 30
0.0
  0
XRECORD
  5
61
102
{ACAD_REACTORS
330
54
102
}
330
54
100
AcDbXrecord
340
0
  0
XRECORD
  5
62
102
{ACAD_REACTORS
330
54
102
}
330
54
100
AcDbXrecord
 70
     0
  0
XRECORD
  5
58
102
{ACAD_REACTORS
330
54
102
}
330
54
100
AcDbXrecord
  1

  0
XRECORD
  5
55
102
{ACAD_REACTORS
330
54
102
}
330
54
100
AcDbXrecord
 90
        1
  0
XRECORD
  5
56
102
{ACAD_REACTORS
330
54
102
}
330
54
100
AcDbXrecord
 90
       70
  0
XRECORD
  5
6C
102
{ACAD_REACTORS
330
54
102
}
330
54
100
AcDbXrecord
340
0
  0
XRECORD
  5
72
102
{ACAD_REACTORS
330
54
102
}
330
54
100
AcDbXrecord
 10
0.0
 20
0.0
 30
0.0
  0
XRECORD
  5
6E
102
{ACAD_REACTORS
330
54
102
}
330
54
100
AcDbXrecord
 10
0.0
 20
0.0
 30
0.0
  0
XRECORD
  5
71
102
{ACAD_REACTORS
330
54
102
}
330
54
100
AcDbXrecord
 10
0.0
 20
0.0
 30
0.0
  0
XRECORD
  5
6F
102
{ACAD_REACTORS
330
54
102
}
330
54
100
AcDbXrecord
 10
0.0
 20
0.0
 30
0.0
  0
XRECORD
  5
70
102
{ACAD_REACTORS
330
54
102
}
330
54
100
AcDbXrecord
 10
0.0
 20
0.0
 30
0.0
  0
XRECORD
  5
6D
102
{ACAD_REACTORS
330
54
102
}
330
54
100
AcDbXrecord
 10
0.0
 20
0.0
 30
0.0
  0
XRECORD
  5
6A
102
{ACAD_REACTORS
330
54
102
}
330
54
100
AcDbXrecord
340
0
  0
XRECORD
  5
6B
102
{ACAD_REACTORS
330
54
102
}
330
54
100
AcDbXrecord
 70
     0
  0
XRECORD
  5
5F
102
{ACAD_REACTORS
330
54
102
}
330
54
100
AcDbXrecord
  1
{FAEB1C32-E019-11D5-929B-00C0DF256EC4}
  0
ENDSEC
  0
EOF
